<?xml version="1.0" encoding="UTF-8"?>
<svg id="Layer_2" xmlns="http://www.w3.org/2000/svg" viewBox="0 0 120.22 215.65">
  <defs>
    <style>
      .cls-1 {
        fill: #ffcea8;
      }
    </style>
  </defs>
  <g id="Layer_2-2" data-name="Layer_2">
    <path class="cls-1" d="M119.65,39.76c.63.83.46,1.36-.55,1.61-.11.02-.29.09-.3.15-.1.9-.15,1.8-.25,2.69-.04.33-.07.75-.27.95-1.16,1.11-2.35,2.18-3.58,3.21-.38.31-.99.34-1.37.65-1.04.86-1.99,1.83-3.04,2.69-.27.22-.74.27-1.12.27-.51,0-1.03-.16-1.53-.12-.22.02-.63.43-.6.59.46,2.39.89,4.8,1.54,7.15.34,1.21.62,2.36.27,3.57-.55,1.88-1.13,3.75-1.73,5.62-.2.6-.2,1.01.3,1.55.46.51,1.29,1.17.72,2.02-.82,1.22-.46,2.21.39,3.16,1.89,2.13,3.8,4.24,5.72,6.35,2.33,2.55,1.67,5.88-1.47,7.32-.71.32-1.4.69-2.13.95-.95.33-1.13.96-.68,1.73.65,1.11,1.31,2.25,2.14,3.21,1.19,1.38,1.54,2.47.59,4.02-.52.82-1.39,1.47-2.21,2.06-.72.52-.91.84-.1,1.46,1.45,1.11,1.66,2.61,1.2,4.29-.39,1.43-1.31,2.06-2.79,2.25-1.99.25-2.15.56-1.99,2.54.28,3.68-1.89,6.99-5.35,8.23-2.83,1.01-5.73,1.09-8.66.7-1.65-.22-3.27-.64-4.91-.94-.29-.05-.62.07-.93.11.14.28.23.61.44.81.94.9,1.95,1.72,2.86,2.64,2.82,2.88,4.65,6.17,4.59,10.38-.05,3.48.08,6.97.29,10.45.22,3.77.63,7.53.95,11.3.36,4.17.77,8.33,2.23,12.31.96,2.61,1.91,5.22,2.73,7.87.95,3.11,1.65,6.32,3.94,8.83.19.22.28.52.4.79,1.28,2.83,2.7,5.61,3.82,8.5,2.45,6.32,2.06,19.3,3.08,21.95-37.43,0-74.86,0-112.29.02v-62.7c2.35-2.05,4.74-4.07,6.3-6.85,2.07-3.7,5.26-6.23,8.69-8.58,1.91-1.31,3.78-2.73,5.45-4.33,1.07-1.02,1.68-2.52,2.61-3.71,1.52-1.94,3.15-3.76,6.05-2.59.18.08.43,0,.65-.04,1.06-.19,2.9-2.52,2.93-3.76.06-2.3.58-4.4,2.35-6.03.23-.21.44-.54.48-.84.27-1.95.5-3.9.71-5.85.02-.19-.12-.52-.26-.57-.33-.11-.73-.21-1.05-.12-.85.26-1.66.58-2.39,1.17-.27.22-1.06-.18-1.6-.31-.19-.05-.35-.2-.54-.22-.46-.05-1.04.12-1.38-.1-1.15-.76-2.4-.7-3.66-.68-.73.02-.72.06-1-.62-.04-.11-.24-.14-.36-.21-.22-.13-.51-.2-.65-.39-.51-.72-2.43-1.62-3.26-1.44-.57.13-.82.13-1.1-.59-.29-.72-1.02-1.33-1.69-1.81-1.01-.72-1.99-1.4-2.24-2.72-.21-1.07-.41-2.14-.64-3.21-.03-.12-.33-.31-.38-.27-.19.11-.32.31-.48.48-.04-.32-.18-.67-.1-.96.36-1.42.71-2.81-.6-3.98-.14-.11-.25-.28-.31-.45-.21-.67-.09-1.56-1.15-1.66-.07-.01-.13-.44-.14-.68-.07-1.56,1.25-3.13,0-4.71-.07-.08.23-.39.22-.58,0-.27-.08-.71-.25-.78-1.08-.46-1.2-.81-.6-1.82.12-.21.11-.67-.04-.86-1.08-1.44-1.96-2.99-2.66-4.64-.88-2.08-.92-2.12-3.16-1.9-.09,0-.21-.24-.27-.38-.05-.13,0-.36-.08-.41-.55-.36-.39-1.51-1.45-1.32-.03,0-.08-.34-.18-.47-1.19-1.54,0-3.72-1.42-5.18-.02-.03-.01-.08-.02-.11-.07-.88.32-1.68-.45-2.65-.76-.94-.1-1.99,1.12-2.69.15-.08.43-.24.43-.26-.29-.64-.61-1.27-.95-1.89-.18-.35-.56-.68-.56-1.02.04-1.41.19-2.81.28-4.23.03-.5,0-1.02-.04-1.53-.04-.41-.35-.96-.19-1.19.59-.81.14-1.21-.39-1.72-.24-.24-.51-.78-.4-.95.73-1.17,1.62-2.23,2.34-3.4.3-.5.5-1.65.4-1.69-.92-.39-.1-.66,0-.96.12-.35.24-.71.36-1.06.66-.24.46-.6.14-.98-.78-1.66-.19-3.42,1.33-4.24.24-.14.31-.66.39-1.01.04-.17-.08-.38-.12-.57.15.13.31.26.47.39.65.54,1.03-.08,1.39-.41.24-.22.62-.76-.27-.76-.06,0-.28-.75-.14-.92.37-.46.9-.8,1.36-1.19.19.26.4.5.58.76.16.22.28.46.42.69.1-.29.27-.59.28-.89,0-.32-.18-.63-.24-.96-.11-.62-.2-1.25-.28-1.88,0-.04.16-.15.2-.13,1.48.65,1.6-.25,1.58-1.35,0-.12.1-.24.15-.36.03.13.04.28.1.4.12.25.26.5.39.74.09-.05.23-.09.25-.16.33-1.02.6-2.05.96-3.05.13-.36.42-.71.72-.94.35-.25.81-.35,1.2-.55.22-.11.41-.28.61-.43-.19-.06-.39-.11-.57-.18-.08-.03-.15-.1-.22-.15.07-.03.14-.08.2-.07.79.05.64-.51.68-.98.02-.29.06-.6.18-.86.67-1.53,1.1-3.29,2.15-4.5.78-.9,1.32-1.93,2.09-2.76.56-.61,1.07-1.1,1.16-1.94.06-.6-.12-1.28.78-1.51.63-.17,1.24-.83,1.79-.76,1.2.16,1.82-.51,2.51-1.19.77-.78,1.24-1.9,2.58-2.01.44-.03.9-.4,1.26-.71.94-.8,1.83-1.62,3.22-1.43.62.09,1.33.22,1.87,0,1.1-.43,2.12-1.08,3.17-1.65.15-.09.33-.21.39-.35.12-.3.17-.64.25-.95.22.11.42.29.64.33.14.02.32-.17.45-.29.39-.34.76-.7,1.13-1.06.87-.82,1.64-.8,2.54-.04.47.4,1.03.69,1.56.99.66.37,1.35.7,2,1.08.33.2.72.99.75-.17.01-.14.34-.43.39-.4,1.2.65,1-.57,1.38-1,.16-.2.51-.51.52-.51.94.94,1.58.5,2.26-.37.15-.19.77-.13,1.12-.02.66.2,1.27.6,1.93.78.39.1.97.09,1.25-.13.89-.72,2.55-1.16,3.49-.62,1.69.95,3.06.08,4.5-.62.41-.2.9-.31,1.37-.35.4-.04,1.05.64,1.03-.43h.25c-.07.82.38.62.91.56.29-.03,1.02-.02.7.76-.04.11.21.37.37.5.07.05.35,0,.38-.09.32-.7.42-1.88,1.5-.57,1.3-.71,2.27.57,3.47.6.44.02,1.27.14,1.15,1.04-.01.05.36.23.43.18.7-.48,1.91.27,2.29-.95.06.05.12.1.19.13.3.14.6.31.92.38.79.16,1.65-.94,2.44.1.03.04.49-.15.64-.33.38-.45.64-1.01,1.42-.65.5.23,1.13.19,1.57.48,1,.66,2.04.84,3.2.75.48-.04,1.05.04,1.44.29,1.07.68,2.02,1.56,3.12,2.19.64.36,1.39,1.78,2.27.18.02-.04.39.05.55.16,1.06.74,2.22.36,3.36.38.58,0,1.47.02,1.67.36.59,1,1.28,1.17,1.88.31.84-1.21,1.68.45,2.45-.15.03,0,.27.31.43.46,1.07,1.01,2.16,2,3.2,3.03.2.2.23.56.37.84.39.81.64,1.79,1.25,2.39.73.72,1.78,1.1,2.67,1.67.31.19.63.45.78.76.37.8.66,1.61,1.83,1.31.14-.03.37.27.56.41-.12.1-.25.3-.35.28-1.16-.18-.67.53-.38.86.44.51,1.02.91,1.56,1.35.03.03.16-.06.2-.04.26.18.63.33.76.59.47.94.93,1.9,1.28,2.89.4,1.08,1.11,2.28.91,3.28-.37,1.95.25,3.94-.47,5.86-.21.56.22,1.34.33,2.03.03.15-.01.32-.01.48-.13-.04-.29-.05-.37-.13-.19-.2-.34-.44-.5-.66.02.31.03.62.06.94.04.5.07,1.01.14,1.51.02.13.18.3.3.32.17.02.35-.08.53-.13-.12.26-.17.7-.35.77-1.54.57-.75,1.35-.2,2.08Z"/>
  </g>
</svg>