<?xml version="1.0" encoding="UTF-8"?>
<svg id="Layer_2" xmlns="http://www.w3.org/2000/svg" viewBox="0 0 120.4 204.29">
  <defs>
    <style>
      .cls-1 {
        fill: #ffcea8;
      }
    </style>
  </defs>
  <g id="Layer_2-2" data-name="Layer_2">
    <path class="cls-1" d="M.04,148.96c0,17.86.02,35.73-.04,53.59,0,1.43.32,1.75,1.75,1.75,38.96-.05,77.91-.04,116.87,0,1.42,0,1.99-.32,1.71-1.75-.22-.42-.51-.82-.64-1.27-3.59-12.17-10.59-22.41-18.24-32.3-4-5.18-7.9-10.37-10.04-16.74-2.01-5.97-5.61-11.14-10.95-14.54-6.21-3.96-11.73-8.65-17.07-13.64-1.27-1.19-1.67-2.31-1.23-4.01,1.72-6.69,4.65-12.85,8.14-18.76,1.78-3.01,2.6-3.14,5.82-1.91,2.92,1.12,5.81,2.46,8.83,3.18,6.3,1.5,9.68-1.33,9.76-7.76.01-1.03-.13-2.52.46-2.99,2.18-1.78,3.89-3.56,2.99-6.65-.05-.18.24-.52.44-.7,1.7-1.49,1.59-3.22.96-5.2-.68-2.11.05-3.54,2.28-4.45,3.87-1.57,4.55-4.47,2.22-8-1.2-1.82-2.18-3.78-3.39-5.59-1.19-1.79-1.13-3.16.62-4.62,1.35-1.12,1.95-2.51-.48-3.35-.25-.09-.5-1.23-.28-1.46,2.37-2.64,2.46-5.42,1.78-8.88-.92-4.74-.98-9.63-3.45-13.98-.18-.32-.33-.75-.28-1.09.45-2.82-.34-5.4-1.39-7.96-1.7-4.14-2.92-8.12-7.59-10.72-8.06-4.48-16.37-7.82-25.43-8.89-5.41-.64-10.96.06-16.44-.19-6.28-.28-11.35,2.74-16.44,5.63-4.75,2.7-8.34,6.75-12.06,10.73-4.4,4.72-6.64,10.21-7.98,16.31-.35,1.61-1.06,3.16-1.66,4.71-.19.48-.78.86-.84,1.32-.49,3.88-2.14,7.73-.44,11.7.13.31-.07.75-.06,1.12.04,2.22-.36,4.14,1.04,6.57,1.44,2.5,2.68,5.56,3.49,8.49.77,2.77,1.86,5.06,3.98,7.01,1.71,1.57,1.55,2.27-.65,3.31-2.4,1.13-5,1.86-7.36,3.05-2.73,1.38-4.9,3.59-5.51,6.64-.8,3.97-1.44,8.03-1.54,12.06-.08,3.23.04,6.71,2.27,9.42,1.21,1.47,1.04,2.5-.19,3.65-1.24,1.17-2.5,2.33-3.74,3.49v.57c1.26-.64,2.63-1.14,3.75-1.97,1.62-1.2,2.28-.54,2.32,1.07.07,2.65,1.56,4.19,3.48,5.79,1.95,1.62,4.79,3.08,3.74,6.46-.4,1.31-1.1,2.6-1.95,3.67-4.44,5.61-8.33,11.54-11.34,18.04Z"/>
  </g>
</svg>