<?xml version="1.0" encoding="UTF-8"?>
<svg id="Layer_2" xmlns="http://www.w3.org/2000/svg" viewBox="0 0 143.28 204.47">
  <defs>
    <style>
      .cls-1 {
        fill: #ffcea8;
      }
    </style>
  </defs>
  <g id="Layer_2-2" data-name="Layer_2">
    <path class="cls-1" d="M143.19,204.47c0-1.78,0-3.57-.02-5.35-.06-4.27.51-8.7-.42-12.79-2.13-9.35-4.74-18.61-7.64-27.75-2.42-7.64-6.51-14.15-15.07-16.33-.57-.15-1.17-.3-1.67-.59-.2-.12-.36-.7-.24-.92,1.36-2.71.63-4.19-2.37-4.85-2.06-.45-4.09-1.1-6.16-1.52-.46-.09-1.04.47-1.59.63-.27.08-.75.06-.87-.11-.27-.37-.3-.91-.56-1.3-.44-.66.17-3-1.91-1.3,0,0-.41-.34-.45-.55-.54-3.62-2.57-6.27-5.35-8.48-1.25-.99-2.59-1.91-3.64-3.09-2.47-2.77-4.78-5.67-7.16-8.52-.32-.38-.59-.8-.89-1.19.52.02,1.06.14,1.56.05,1.55-.26,3.23-.32,4.6-.99,1.79-.88,3.09-2.29,2.11-4.72-.52-1.29-.55-2.79-.84-4.46.57.7.9,1.11,1.24,1.53.26-.44.61-.86.77-1.34.74-2.18,1.46-4.36,2.11-6.56.25-.85.22-1.78.4-2.66.43-2.1,1.51-4.29,1.23-6.28-.55-3.85-.44-6.98,3.7-8.65.47-.19.82-.67,1.25-.98.27-.19.61-.46.89-.43,3.09.29,4.09-1.76,4.54-4.19.55-2.96.91-5.95,1.27-8.93.07-.54-.08-1.33-.44-1.66-2.45-2.21-4.72-4.72-8.36-5.07-.79-.08-1.81-.72-2.21-1.4-1.21-2.09-2.37-4.25-3.14-6.53-.28-.82.59-2.03.93-3.06.35.33.66.72,1.06.96.28.17.73.27,1.02.18,1.27-.41,2.55-.82,3.75-1.4,2.44-1.18,4.76-2.65,7.28-3.6.96-.37,2.34.35,3.52.58-.33,1.08-.46,2.31-1.06,3.2-.48.71-1.57.99-2.34,1.52-.24.17-.34.55-.5.83.27.04.66.21.8.09,1.42-1.21,3.28-2.23,4.07-3.79.97-1.9-.4-3.45-2.3-4.33-.3-.14-.63-.61-.63-.92,0-1.07.12-2.15.26-3.21.2-1.47.47-2.94.7-4.41-.83,1.8-2.41.2-3.54.74-.2.1-.62-.24-.93-.38.26-.22.59-.4.77-.68.47-.72.99-1.44,1.29-2.23.39-1.04.57-2.16.89-3.23.4-1.34.96-1.13,1.56-.12-2.27-4.23-3.32-9.32-8.33-11.64-.74-.34-.79-.79-1.27.29-.58,1.3-1.76,1.79-3.17.68-.73-.58-1.6-1.12-2.5-1.32-.71-.16-1.75-.02-2.27.43-.91.79-.85.95-1.32-.25-1.58-4.06-4.47-6.54-8.83-6.87-1.67-.13-3.4.5-5.11.71-.62.07-1.51.15-1.87-.2-2.01-1.97-4.03-3.73-7.17-3.11-.22.04-.51-.59-.84-.75-1.44-.68-2.86-1.6-4.39-1.85-1.47-.24-3.16.66-4.57.31-2.81-.71-4.87-.25-7.07,1.96-.48.49-1.72.52-2.51.34-1.17-.27-2.22-1.17-3.39-1.35-1.29-.2-2.69-.01-3.99.27-.65.14-1.12.94-1.74,1.34-2.46,1.61-4.9,3.28-7.45,4.73-1.25.71-2.74.98-4.1,1.49-.96.35-1.96.66-2.82,1.18-.79.48-1.33,1.46-2.16,1.79-2.86,1.15-4,2.67-4.05,5.78,0,.17-.44.35-.69.48-1.81.94-3.64,1.84-5.43,2.81-.25.14-.36.55-.54.83.16.01.32.04.48.03.29-.02.58-.07.87-.11-.17.37-.33.74-.51,1.1-.28.56-.72,1.08-.83,1.67-.22,1.1-.29,2.22-.33,3.34-.01.35.23.74.43,1.06.79,1.27.87,2.22-.81,2.87-1.15.45-2.23.99-1.2,2.74.47.79.02,2.12-.02,3.21,0,.21-.03.42-.04.63.28-.04.58-.02.83-.13,1.15-.5,1.96-.4,2,1.09.05,2.19.28,4.4.06,6.56-.45,4.52-.37,8.93.98,13.33,1.02,3.3,1.36,6.87,2.71,10.01,1.8,4.16,4.22,8.07,6.51,12.01,1.63,2.81,3.5,5.49,5.23,8.25.23.37.24.86.35,1.3-.4-.02-.81,0-1.2-.08-2.37-.45-4.06.69-4.37,2.83-.43,3.01-.63,6.15-.21,9.14.33,2.31.46,3.48-1.94,4.92-1.81,1.09-2.45,4.02-3.83,5.98-.97,1.38-2.34,3.54-3.49,3.51-3.25-.08-5.4,1.63-7.93,3.06-3.38,1.91-7.06,3.3-10.61,4.91,0,25.94.01,53.15-.03,79.25,5.99,0,135.99,0,143.19,0ZM101.95,66.89c1.67-.69,3.45-1.21,4.98-2.14,2.11-1.29,2.74-.41,2.58,1.53-.18,2.21-.53,4.42-1.11,6.56-.14.52-1.45.74-2.24,1.03-.1.04-.51-.29-.5-.44.23-3.03-1.96-4.65-3.71-6.54ZM102.98,56.89c1.58.29,3.18,1.17,4.48,2.16,1.32,1.01,1.36,2.24-.55,2.99-2.3.9-4.62,1.85-5,4.77-.3-.73-.6-1.47-.9-2.2,2.3-.25,1.49-1.9,1.52-3.23.01-.53.43-1.04.54-1.58.13-.67.14-1.37.2-2.06-.46.22-1.11.32-1.35.69-.42.64-.56,1.46-.89,2.17-.12.26-.4.54-.66.62-.17.05-.6-.22-.65-.41-.52-2.15,1.09-4.31,3.25-3.92Z"/>
  </g>
</svg>