<?xml version="1.0" encoding="UTF-8"?>
<svg id="Layer_2" xmlns="http://www.w3.org/2000/svg" viewBox="0 0 131.34 205.7">
  <defs>
    <style>
      .cls-1 {
        fill: #ffcea8;
      }
    </style>
  </defs>
  <g id="Layer_2-2" data-name="Layer_2">
    <path class="cls-1" d="M0,202.35c0,1.11.16,2.23.25,3.35h131.09c-.93-3.61-1.8-7.23-2.73-10.83-.88-3.44-1.79-6.87-2.71-10.29-.32-1.19-.68-2.37-1.08-3.54-.29-.87-.66-1.71-1.04-2.55-1-2.21-1.89-4.47-3.07-6.58-.99-1.78-2.38-3.34-3.49-5.07-.91-1.42-1.65-2.95-2.48-4.42-1.14-2.02-2.39-3.98-3.41-6.06-.94-1.92-1.77-3.91-2.4-5.95-.74-2.34-1.09-4.81-1.84-7.15-.39-1.19-1.07-2.43-1.98-3.27-1.13-1.04-1.3-3.01.03-3.89.7-.46,1.14-1.86.57-2.39-1.06-.99-2.24-1.85-3.43-2.69-1.11-.79-2.28-1.47-3.43-2.2-.2-.13-.46-.39-.61-.34-.98.31-1.36-.46-1.91-.96-.34-.3-.78-.49-1.17-.74-.17-.12-.38-.22-.5-.38-.48-.66-.85-1.43-1.42-1.99-.84-.83-1.96-1.32-2.43-2.6-.67-1.8-2.48-2.32-4.06-2.93-.7-.28-.99-.41-.58-1.07,1.28-2.05,2.47-4.17,3.92-6.09,1.24-1.63,2.9-2.72,5.18-2.36,1.31.22,2.64.36,3.96.39,2.23.05,4.46.1,6.67-.09,1.2-.1,2.49-.47,3.51-1.09,1.65-1.01,2.74-2.64,3.76-4.28.2-.32.64-.58.67-.89.17-1.82.39-3.61-.47-5.42-.35-.75.02-1.94.31-2.85.22-.7.98-1.23,1.2-1.92.38-1.19.4-2.5.78-3.69.68-2.12,1.48-4.22,2.31-6.29.67-1.72.55-3.35-.47-4.84-.89-1.31-.87-1.72.55-2.53.26-.15.52-.3.78-.47,2.43-1.57,2.73-2.3,1.8-4.96-.79-2.25-1.91-4.31-3.69-5.98-1.95-1.82-3.85-3.7-5.66-5.66-.35-.37-.35-1.29-.18-1.85.32-1,1.04-1.89,1.32-2.91.17-.63,0-1.46-.28-2.11-.67-1.6-1.58-3.11-2.21-4.72-.73-1.86-1.3-3.78-1.86-5.7-.54-1.85-1.66-3.59-1.17-5.65.06-.23.17-.6.29-.62.8-.12,1.6-.16,2.2-.21.16-.26.35-.52.48-.81.06-.14.03-.35-.03-.5-.12-.31-.29-.59-.44-.89.38.05.76.11,1.14.16.18.02.39-.05.52.03.4.26.79.55,1.15.87.16.15.23.38.54.91v-2.25c.17.03.62.22.68.13.63-.86,1.14-1.73.85-2.92-.24-.96-.23-1.99-.34-2.99,0-.15.01-.32-.06-.44-.68-1.17.04-2.08.53-3.06.13-.27.26-.72.13-.93-.85-1.38-1.61-2.87-2.72-4.02-1.11-1.14.63-1.5.33-2.3.32-.08.63-.15,1.02-.24-.15-.25-.33-.54-.49-.84-.63-1.22-1.52-2.38-1.8-3.67-.47-2.09-1-4.04-2.75-5.41-.2-.15-.61-.12-.89-.06-.93.21-1.9.79-2.74.64-.74-.14-1.5-.75-2.17-1.45-.81-.84-2.19-1.2-3.38-1.61-.62-.21-1.36-.17-2.03-.08-1.06.13-2.51-.96-2.81-2.15-.15-.55-.08-1.61-1.21-.91-.7.43-1.23,1.42-2.25.54-.07-.06-.29.02-.43.06-.63.21-1.26.43-1.89.64-.17.3-.42.49-.6.44-1.1-.31-2.17-1.09-3.31-.11-.26.23-.55.42-.83.64-.7.55-1.25.63-2.1-.01-.86-.66-2.07-.86-2.86-1.17-.21.5-.29,1.3-.72,1.58-1.15.75-2.44,1.29-3.7,1.89-.28.13-.67.26-.93.17-2.18-.78-4.06.2-5.99.93-.23.08-.54,0-.81-.06-.58-.12-1.25-.54-1.71-.37-1.83.7-3.94.86-5.31,2.57-.18.22-1.08.24-1.26.02-.9-1.08-1.94-1.66-3.32-1.22-1.18.38-2.42.74-3.45,1.39-.88.56-1.59,1.46-2.21,2.33-.64.89-1.33.74-2.18.53-1.3-.32-2.66-.88-3.94-.75-3.4.35-6.74,1.02-9.35,3.55-.79.76-1.67,1.42-2.5,2.13.66.02,1.22-.16,1.79-.3.21-.06.44-.02.67-.02-.14.19-.24.46-.43.55-2.37,1.12-3.57,3.37-5.04,5.31-1.1,1.46-1.81,3.21-3.74,3.83-.59.19-1.2.4-1.68.76-2.68,2.02-3.94,4.79-4.06,8.1-.06,1.84-.38,2.13-2.3,1.64,1.52,1.29.94,1.87-.4,2.33-.32.11-.48.69-.71,1.06,1.29.5.64,1.38.42,2.17-.08.27-.15.54-.22.81.3-.01.62.04.9-.05.81-.24,1.76-.6,2.24.27.31.57.06,1.44.07,2.17.01.48.03.96.07,1.43,0,.08.18.2.28.2.06.01.17-.14.21-.24.33-.81.63-1.63.98-2.42.08-.17.31-.35.49-.38.16-.02.34.16.52.25-.12.14-.23.29-.27.33.38.14.79.29,1.19.44-.15.29-.23.74-.47.86-1,.53-.57,1.56-.89,2.33-.26.61-.19,1.37-.48,1.97-.63,1.3-1.41,2.53-2.09,3.81-.07.14.13.42.2.64.28-.09.64-.11.81-.3.22-.25.19-.75.43-.94.4-.33.92-.51,1.4-.75.1.44.32.89.28,1.31-.05.59-.36,1.15-.46,1.74-.05.29.08.65.19.94.26.63.68,1.22.81,1.87.15.79.06,1.63.1,2.44.09,1.8.8,3.55.17,5.4-.59,1.72-.02,3.43.31,5.13.02.12.14.23.16.25.43-.17.77-.31.95-.39.63,1.17,1.24,2.41,1.95,3.58.48.78,1.21,1.41,1.64,2.21,1.05,1.9,1.99,3.87,2.98,5.8.01.03.08.03.12.05.08-.1.15-.2.22-.3.17.08.38.11.49.24.35.45.62.96.99,1.38.51.56,1.07,1.07,1.63,1.58.87.8.25,2.2,1.32,2.99.79.58,1.45,1.42,1.98,2.26,1.26,1.99,2.45,4.03,3.57,6.11.16.3-.21.9-.37,1.34-.17.46-.38.9-.56,1.35-.15.37-.2.81-.43,1.11-.98,1.23-2.21,2.3-2.96,3.65-.79,1.41-.93,3.2-1.75,4.59-1.2,2.05-2.72,3.91-4.15,5.81-1.96,2.62-3.1,5.42-1.96,8.71.11.32.67.71,1.01.69,1.2-.04,1.95.53,1.42,1.53-1.03,1.96-2.41,3.74-3.64,5.6-.03.03-.09.05-.13.07-3.23,1.79-5.72,4.28-7.34,7.62-.34.69-.74,1.37-1.22,1.97-2.87,3.53-4.39,7.82-6.63,11.7-1.1,1.91-2.17,3.84-3.23,5.77-.19.34-.37.71-.43,1.09-.31,1.73.22,3.71-1.54,5-.09.06-.08.23-.14.34-.88,1.71-1.55,3.58-2.71,5.08-1.3,1.68-1.75,3.51-1.91,5.49-.47,6.13-.89,12.26-1.3,18.4-.12,1.9-.12,3.81-.23,5.71-.06,1.11-.35,2.22-.34,3.33ZM32.42,19.6c-.45.38-.89.77-1.35,1.13-.02.02-.17-.11-.42-.28.56-.38,1.02-.69,1.49-.99.05-.03.18.09.28.14ZM34.37,15.09s-.05.11-.1.19c-.06-.07-.13-.12-.13-.17,0-.05.06-.1.1-.15.05.05.12.08.13.13ZM37.65,19.95c-.15.13-.39.48-.71.58-1.96.62-3.94,1.19-5.91,1.76-.25.07-.52.03-.79.03.16-.23.3-.47.47-.69.93-1.19,2.75-.52,3.71-1.84.39-.52,1.37-.62,2.08-.9.79-.31,1.13.04,1.15,1.06ZM37.79,16.73c.07,0,.13.1.2.15-.07.08-.13.17-.21.22-.03,0-.12-.1-.23-.18.11-.09.17-.19.24-.19ZM38.95,12.15c-.21.1-.41.24-.64.29-.11.02-.26-.14-.39-.22.18-.14.35-.28.58-.47.19.17.32.28.45.4ZM54.25,10.75c-.04-.07.41-.51.45-.48.5.32.96.69,1.43,1.06-.25.21-.51.41-.99.8-.37-.55-.67-.94-.89-1.38ZM53.73,8.33c.16-.1.3-.25.47-.3.51-.14,1.03-.26,1.55-.34.29-.05.69-.11.86.04.21.2.36.62.3.89-.05.22-.44.37-.6.49-.89-.18-1.62-.32-2.34-.48-.1-.03-.16-.19-.24-.3ZM50.9,12.1c.33-.37.65-.75,1.27-1.45.49.74.85,1.18,1.09,1.69.07.15-.31.69-.33.68-.69-.28-1.36-.6-2.03-.92ZM50.65,10.81c.31-.46.65-.9,1.13-1.54.37.47.51.65.65.83-.5.36-1.01.72-1.53,1.06,0,0-.28-.3-.25-.35Z"/>
  </g>
</svg>