<?xml version="1.0" encoding="UTF-8"?>
<svg id="Layer_2" xmlns="http://www.w3.org/2000/svg" viewBox="0 0 68.11 30.14">
  <defs>
    <style>
      .cls-1 {
        fill: #ffcea8;
      }
    </style>
  </defs>
  <g id="Layer_2-2" data-name="Layer_2">
    <g id="EhrLogo">
      <g>
        <g id="E">
          <path class="cls-1" d="M0,0h22.39l.43,8.53h-.77c-1.21-2.9-2.47-4.89-3.79-5.96-1.32-1.08-3.26-1.61-5.81-1.61h-1.51v13.31h1.46c1.35,0,2.48-.51,3.4-1.53.92-1.02,1.56-2.39,1.94-4.11h.65v12.75h-.73c-.52-2.15-1.21-3.69-2.09-4.61-.88-.92-2.07-1.38-3.6-1.38h-1.03v13.82h1.64c2.64,0,4.89-.79,6.74-2.37,1.85-1.58,3.12-3.6,3.81-6.07h.86l-.34,9.39H0v-.95h2.54V.95H0v-.95Z"/>
        </g>
        <g id="H">
          <path class="cls-1" d="M41.68,29.82s.03.05.04.09c0,.03.01.05.01.07,0,.11-.09.16-.26.16-.1.01-.39,0-.87-.04s-.81-.05-1-.05c-.31,0-.78.02-1.4.07-.23.02-.4.02-.49.01-.17,0-.25-.06-.25-.17,0-.05.01-.09.04-.12.03-.04.24-.21.63-.51.3-.23.45-.44.45-.63v-12.69c-.54.23-1.17.4-1.87.51s-1.4.16-2.09.16c-.78,0-1.68-.11-2.71-.33-1.03-.22-1.93-.51-2.71-.86v13.23c0,.18.15.39.44.61.39.3.6.46.62.49.02.02.03.05.04.09.01.03.02.05.02.07,0,.11-.09.16-.26.16-.1.01-.39,0-.87-.04-.48-.03-.82-.05-1-.05-.31,0-.78.02-1.4.07-.23.02-.4.02-.5.01-.17,0-.25-.06-.25-.17,0-.05.01-.09.04-.12.03-.04.24-.21.63-.51.3-.23.45-.44.45-.63v-13.33c-.14-.02-.25-.03-.35-.03-.64,0-1.22.15-1.75.45-.62.36-.93.83-.93,1.41,0,.28.06.51.19.68.08.11.2.21.36.31.17.1.39.15.67.15.13,0,.21,0,.26-.03.12-.03.17,0,.17.1,0,.06-.04.12-.12.19-.16.15-.34.26-.54.35-.29.14-.59.2-.89.2-.49,0-.9-.13-1.24-.39-.42-.32-.63-.77-.63-1.35,0-.65.17-1.21.52-1.67.3-.39.74-.73,1.31-1.03.3-.17.67-.3,1.11-.39.54-.13,1.15-.19,1.83-.19v-2.94c0-.18-.15-.39-.44-.63-.21-.16-.43-.33-.64-.51-.03-.04-.04-.1-.02-.17s.09-.12.23-.12c.1,0,.39,0,.88.04s.83.05,1.02.05c.39,0,.79-.01,1.19-.04.4-.03.63-.04.68-.04.17,0,.26.05.26.16,0,.06-.02.11-.06.16-.02.03-.22.19-.6.48-.3.23-.46.44-.46.63v3.11c.77.36,1.7.68,2.79.97,1.1.29,2.08.43,2.94.43.69,0,1.22-.03,1.6-.1.59-.11,1.27-.33,2.04-.68v-3.73c0-.18-.15-.39-.44-.63-.21-.16-.43-.33-.64-.51-.03-.04-.04-.1-.02-.17s.09-.12.23-.12c.1,0,.39,0,.87.04.49.03.82.05,1.02.05.39,0,.78-.01,1.19-.04.4-.03.63-.04.68-.04.17,0,.26.05.26.16,0,.06-.02.11-.06.16-.02.03-.22.19-.6.48-.3.23-.45.44-.45.63v17.54c0,.18.15.39.44.61.39.3.59.46.61.49Z"/>
        </g>
        <path id="R" class="cls-1" d="M43.74,30.14V0h13.37c1.36,0,2.62.28,3.8.85,1.17.57,2.19,1.33,3.06,2.29.86.96,1.53,2.04,2,3.23s.7,2.41.7,3.65-.22,2.49-.66,3.65c-.44,1.16-1.07,2.19-1.89,3.08-.82.89-1.78,1.58-2.89,2.06l6.88,11.34h-6.45l-6.2-10.1h-5.86v10.1h-5.86ZM49.6,14.9h7.34c.74,0,1.39-.22,1.95-.66.57-.44,1.02-1.03,1.36-1.76.34-.74.51-1.56.51-2.46s-.2-1.77-.59-2.5c-.4-.74-.89-1.32-1.49-1.74-.59-.42-1.25-.64-1.95-.64h-7.13v9.76Z"/>
      </g>
    </g>
  </g>
</svg>