<?xml version="1.0" encoding="UTF-8"?>
<svg id="Layer_2" xmlns="http://www.w3.org/2000/svg" viewBox="0 0 454.33 811.66">
  <defs>
    <style>
      .cls-1 {
        fill: none;
      }

      .cls-2 {
        fill: #ffcea8;
      }
    </style>
  </defs>
  <g id="Layer_3">
    <rect class="cls-1" y="0" width="454.33" height="811.66"/>
    <g id="Edward">
      <g>
        <path class="cls-2" d="M2.83,330.42h54.11l1.04,20.6h-1.87c-2.91-7.01-5.97-11.81-9.16-14.41-3.19-2.6-7.87-3.9-14.05-3.9h-3.64v32.15h3.54c3.26,0,6-1.23,8.22-3.69,2.22-2.46,3.78-5.77,4.68-9.94h1.56v30.8h-1.77c-1.25-5.2-2.93-8.91-5.05-11.13-2.12-2.22-5.01-3.33-8.69-3.33h-2.5v33.4h3.95c6.38,0,11.81-1.91,16.28-5.72,4.47-3.81,7.54-8.7,9.21-14.67h2.08l-.83,22.68H2.83v-2.29h6.14v-68.26H2.83v-2.29Z"/>
        <path class="cls-2" d="M139.87,365.58c0,14.29-4.02,24.24-12.07,29.86-7.42,5.2-17.62,7.8-30.59,7.8h-29.45v-1.98h6.87v-68.88h-6.87v-1.98h32.15c13.32,0,23.31,2.72,29.97,8.17,6.66,5.45,9.99,14.45,9.99,27ZM94.92,401.27h3.95c7,0,12.02-2.48,15.04-7.44,3.02-4.96,4.53-13.27,4.53-24.92v-6.03c0-15.61-2.98-25.01-8.95-28.2-2.85-1.52-6.87-2.29-12.07-2.29h-2.5v68.88Z"/>
        <path class="cls-2" d="M182.53,382.23l8.64-29.97-6.24-19.87h-5.93v-1.98h32.25v1.98h-6.14l15.5,49.22,12.49-49.22h-10.51v-1.98h20.81v1.98h-6.87l-19.14,71.9h-9.26l-15.4-47.03-13.53,47.03h-9.05l-26.22-71.9h-4.89v-1.98h33.82v1.98h-7.28l16.96,49.84Z"/>
        <path class="cls-2" d="M273.36,401.27l-7.6-22.48h-20.6l-8.01,22.48h7.8v1.98h-15.92v-1.98h4.89l26.53-71.48h8.53l26.22,71.48h4.79v1.98h-34.02v-1.98h7.39ZM255.88,349.25l-9.78,27.26h18.83l-9.05-27.26Z"/>
        <path class="cls-2" d="M334.75,366.42h-5.51v34.86h6.76v1.98h-33.82v-1.98h6.76v-68.88h-6.76v-1.98h31.42c9.02,0,15.42.47,19.2,1.4,3.78.94,6.43,2.06,7.96,3.38,3.33,2.71,4.99,7.01,4.99,12.9s-1.46,10.11-4.37,12.64c-2.91,2.53-7.35,4.04-13.32,4.53v.31c5.62.76,9.54,2.43,11.76,4.99,2.22,2.57,3.33,6.87,3.33,12.9v5.51c0,3.61.19,6.04.57,7.28.38,1.25,1.2,1.87,2.45,1.87s2.24-.57,2.97-1.72c.73-1.15,1.4-3.55,2.03-7.23l1.77.21c-.76,5.9-2.1,9.85-4.01,11.86-1.91,2.01-5.71,3.02-11.39,3.02s-9.73-1.33-12.12-4.01c-2.39-2.67-3.59-7.68-3.59-15.03v-7.6c0-3.88-.5-6.73-1.51-8.53-1.01-1.8-2.86-2.71-5.57-2.71ZM329.24,332.39v32.05h3.33c3.95,0,6.88-1.21,8.79-3.64,1.91-2.43,2.86-6.38,2.86-11.86v-3.02c0-5.48-.92-9.1-2.76-10.87-1.84-1.77-4.77-2.65-8.79-2.65h-3.43Z"/>
        <path class="cls-2" d="M449.41,365.58c0,14.29-4.02,24.24-12.07,29.86-7.42,5.2-17.62,7.8-30.59,7.8h-29.45v-1.98h6.87v-68.88h-6.87v-1.98h32.15c13.32,0,23.31,2.72,29.97,8.17,6.66,5.45,9.99,14.45,9.99,27ZM404.46,401.27h3.95c7,0,12.02-2.48,15.04-7.44,3.02-4.96,4.53-13.27,4.53-24.92v-6.03c0-15.61-2.98-25.01-8.95-28.2-2.85-1.52-6.87-2.29-12.07-2.29h-2.5v68.88Z"/>
      </g>
    </g>
    <g id="Hi_x2C__I_x27_m">
      <path class="cls-2" d="M167.32,1.46v51.94h-10.02v-22.17h-23.56v22.17h-10.1V1.46h10.1v21h23.56V1.46h10.02Z"/>
      <path class="cls-2" d="M177.19,9.66V0h9.73v9.66h-9.73ZM177.19,53.41V15.07h9.73v38.33h-9.73Z"/>
      <path class="cls-2" d="M197.68,59.33l1.24-6.15h-1.68v-6.95h4.83v6.95l-1.83,6.15h-2.56Z"/>
      <path class="cls-2" d="M233.01,53.41V1.46h5.12v51.94h-5.12Z"/>
      <path class="cls-2" d="M245.67,15.29l1.24-7.83h-1.75V0h4.83v7.46l-1.83,7.83h-2.49Z"/>
      <path class="cls-2" d="M313.05,53.41h-4.97v-21.15c0-4.41-.71-7.66-2.12-9.74-1.42-2.08-3.51-3.13-6.29-3.13s-5.45,1.02-7.72,3.05c-2.27,2.04-3.87,4.65-4.79,7.85v23.12h-4.97v-21.15c0-4.46-.68-7.72-2.05-9.78-1.37-2.06-3.46-3.09-6.29-3.09s-5.39.99-7.68,2.98c-2.29,1.98-3.9,4.6-4.83,7.84v23.21h-4.97V15.44h4.54v8.65c1.61-2.96,3.67-5.24,6.18-6.84,2.51-1.6,5.3-2.4,8.38-2.4s5.73.9,7.68,2.69c1.95,1.79,3.15,4.15,3.58,7.06,1.76-3.2,3.87-5.63,6.33-7.27,2.46-1.65,5.25-2.47,8.38-2.47,2.15,0,3.96.39,5.45,1.16,1.49.78,2.68,1.88,3.58,3.31.9,1.43,1.56,3.15,1.97,5.16.41,2.01.62,4.26.62,6.73v22.19Z"/>
    </g>
  </g>
</svg>