<?xml version="1.0" encoding="UTF-8"?>
<svg id="Layer_2" xmlns="http://www.w3.org/2000/svg" viewBox="0 0 1097.25 570.16">
  <defs>
    <style>
      .cls-1 {
        fill: none;
      }

      .cls-2 {
        fill: #ffcea8;
      }
    </style>
  </defs>
  <g id="Layer_2-2" data-name="Layer_2">
    <rect class="cls-1" x="0" width="1097.25" height="570.16"/>
    <g>
      <path class="cls-2" d="M350.92,290.14h47.68l.92,18.16h-1.65c-2.57-6.17-5.26-10.41-8.07-12.7-2.81-2.29-6.94-3.44-12.38-3.44h-3.21v28.33h3.12c2.87,0,5.29-1.08,7.24-3.25,1.96-2.17,3.33-5.09,4.13-8.76h1.38v27.14h-1.56c-1.1-4.58-2.58-7.85-4.45-9.81-1.87-1.96-4.42-2.93-7.66-2.93h-2.2v29.44h3.48c5.62,0,10.41-1.68,14.35-5.04,3.94-3.36,6.65-7.67,8.12-12.93h1.83l-.73,19.99h-50.34v-2.02h5.41v-60.16h-5.41v-2.02Z"/>
      <path class="cls-2" d="M471.69,321.14c0,12.59-3.55,21.37-10.64,26.32-6.54,4.58-15.53,6.88-26.96,6.88h-25.95v-1.74h6.05v-60.71h-6.05v-1.74h28.34c11.74,0,20.54,2.4,26.41,7.2,5.87,4.8,8.8,12.73,8.8,23.8ZM432.07,352.59h3.48c6.17,0,10.59-2.19,13.25-6.56,2.66-4.37,3.99-11.69,3.99-21.96v-5.32c0-13.75-2.63-22.04-7.89-24.85-2.51-1.34-6.05-2.02-10.64-2.02h-2.2v60.71Z"/>
      <path class="cls-2" d="M509.29,335.81l7.61-26.41-5.5-17.51h-5.23v-1.74h28.43v1.74h-5.41l13.66,43.37,11-43.37h-9.26v-1.74h18.34v1.74h-6.05l-16.87,63.37h-8.16l-13.57-41.45-11.92,41.45h-7.98l-23.11-63.37h-4.31v-1.74h29.8v1.74h-6.42l14.95,43.92Z"/>
      <path class="cls-2" d="M589.34,352.59l-6.7-19.81h-18.16l-7.06,19.81h6.88v1.74h-14.03v-1.74h4.31l23.38-63h7.52l23.11,63h4.22v1.74h-29.99v-1.74h6.51ZM573.94,306.74l-8.62,24.03h16.6l-7.98-24.03Z"/>
      <path class="cls-2" d="M643.44,321.87h-4.86v30.72h5.96v1.74h-29.8v-1.74h5.96v-60.71h-5.96v-1.74h27.69c7.95,0,13.59.41,16.92,1.24,3.33.83,5.67,1.82,7.01,2.98,2.93,2.38,4.4,6.18,4.4,11.37s-1.28,8.91-3.85,11.14c-2.57,2.23-6.48,3.56-11.74,3.99v.28c4.95.67,8.41,2.14,10.36,4.4,1.96,2.26,2.93,6.05,2.93,11.37v4.86c0,3.18.17,5.32.5,6.42.33,1.1,1.05,1.65,2.16,1.65s1.97-.5,2.61-1.51c.64-1.01,1.24-3.13,1.79-6.37l1.56.18c-.67,5.2-1.85,8.68-3.53,10.45s-5.03,2.66-10.04,2.66-8.57-1.18-10.68-3.53c-2.11-2.35-3.16-6.77-3.16-13.25v-6.69c0-3.42-.44-5.93-1.33-7.52-.89-1.59-2.52-2.38-4.91-2.38ZM638.58,291.88v28.24h2.93c3.48,0,6.07-1.07,7.75-3.21,1.68-2.14,2.52-5.62,2.52-10.45v-2.66c0-4.83-.81-8.02-2.43-9.58-1.62-1.56-4.2-2.34-7.75-2.34h-3.03Z"/>
      <path class="cls-2" d="M744.5,321.14c0,12.59-3.55,21.37-10.64,26.32-6.54,4.58-15.53,6.88-26.96,6.88h-25.95v-1.74h6.05v-60.71h-6.05v-1.74h28.34c11.74,0,20.54,2.4,26.41,7.2,5.87,4.8,8.8,12.73,8.8,23.8ZM704.88,352.59h3.49c6.17,0,10.59-2.19,13.25-6.56,2.66-4.37,3.99-11.69,3.99-21.96v-5.32c0-13.75-2.63-22.04-7.89-24.85-2.51-1.34-6.05-2.02-10.64-2.02h-2.2v60.71Z"/>
    </g>
    <g>
      <path class="cls-2" d="M138.64,289.22v65.11h-6.33v-30.44h-38.61v30.44h-6.42v-65.11h6.42v28.98h38.61v-28.98h6.33Z"/>
      <path class="cls-2" d="M153.68,296.56v-9.17h6.24v9.17h-6.24ZM153.68,354.33v-47.78h6.24v47.78h-6.24Z"/>
      <path class="cls-2" d="M174.68,361.76l1.56-7.7h-2.11v-8.71h6.05v8.71l-2.29,7.7h-3.21Z"/>
      <path class="cls-2" d="M218.97,354.33v-65.11h6.42v65.11h-6.42Z"/>
      <path class="cls-2" d="M234.83,306.56l1.56-9.81h-2.2v-9.35h6.05v9.35l-2.29,9.81h-3.12Z"/>
      <path class="cls-2" d="M319.28,354.33h-6.23v-26.51c0-5.53-.89-9.6-2.66-12.21s-4.4-3.92-7.89-3.92-6.83,1.28-9.67,3.83c-2.84,2.55-4.85,5.83-6.01,9.84v28.97h-6.24v-26.51c0-5.59-.86-9.67-2.57-12.25-1.71-2.58-4.34-3.87-7.89-3.87s-6.76,1.24-9.63,3.73c-2.88,2.49-4.89,5.76-6.05,9.83v29.09h-6.23v-47.59h5.69v10.85c2.02-3.71,4.6-6.57,7.75-8.57,3.15-2.01,6.65-3.01,10.5-3.01s7.18,1.12,9.63,3.37c2.44,2.25,3.94,5.2,4.49,8.84,2.2-4.01,4.84-7.05,7.93-9.12s6.59-3.1,10.5-3.1c2.69,0,4.97.49,6.83,1.46,1.86.97,3.36,2.36,4.49,4.15,1.13,1.79,1.96,3.95,2.47,6.47s.78,5.33.78,8.43v27.81Z"/>
    </g>
  </g>
</svg>