<?xml version="1.0" encoding="UTF-8"?>
<svg id="Layer_2" xmlns="http://www.w3.org/2000/svg" viewBox="0 0 1097.25 570.16">
  <defs>
    <style>
      .cls-1 {
        fill: none;
      }

      .cls-2 {
        fill: #ffcea8;
      }
    </style>
  </defs>
  <g id="Layer_2-2" data-name="Layer_2">
    <rect class="cls-1" width="1097.25" height="570.16"/>
    <g>
      <path class="cls-2" d="M391.51,416.2s.07.1.09.18c.02.06.03.11.03.15,0,.22-.19.33-.56.33-.21.02-.82,0-1.85-.08-1.02-.07-1.73-.11-2.12-.11-.66,0-1.65.05-2.98.15-.49.04-.85.05-1.05.03-.35,0-.53-.12-.53-.37,0-.1.03-.19.09-.25.06-.08.51-.44,1.33-1.08.64-.5.96-.94.96-1.33v-27.02c-1.16.5-2.48.86-3.98,1.08-1.5.23-2.98.34-4.45.34-1.65,0-3.57-.24-5.76-.71-2.19-.47-4.11-1.08-5.76-1.83v28.17c0,.39.31.83.94,1.3.84.63,1.28.97,1.32,1.03.04.04.07.1.09.18.02.06.03.11.03.15,0,.22-.19.33-.56.33-.21.02-.82,0-1.85-.08-1.03-.07-1.74-.11-2.13-.11-.66,0-1.66.05-2.98.15-.5.04-.85.05-1.06.03-.35,0-.53-.12-.53-.37,0-.1.03-.19.09-.25.06-.08.51-.44,1.33-1.08.64-.5.96-.94.96-1.33v-28.39c-.29-.04-.54-.06-.74-.06-1.37,0-2.6.32-3.72.96-1.32.76-1.98,1.77-1.98,3.01,0,.6.13,1.08.4,1.46.17.23.42.44.78.65.35.21.83.31,1.43.31.27,0,.46-.02.56-.06.25-.06.37.01.37.22,0,.12-.08.26-.25.4-.35.31-.73.56-1.15.74-.62.29-1.25.43-1.89.43-1.03,0-1.91-.28-2.63-.84-.89-.68-1.33-1.64-1.33-2.88,0-1.38.37-2.57,1.12-3.56.64-.83,1.57-1.56,2.79-2.2.64-.35,1.43-.63,2.36-.84,1.16-.27,2.46-.4,3.9-.4v-6.26c0-.39-.31-.84-.93-1.33-.45-.35-.91-.71-1.36-1.08-.06-.08-.08-.21-.05-.37.03-.17.19-.25.48-.25.21-.02.83,0,1.87.08,1.04.07,1.76.11,2.18.11.83,0,1.67-.03,2.54-.09.86-.06,1.34-.09,1.45-.09.37,0,.56.11.56.34,0,.12-.04.24-.12.34-.04.06-.47.4-1.29,1.02-.65.5-.97.94-.97,1.33v6.63c1.63.76,3.62,1.45,5.95,2.06,2.33.61,4.42.91,6.26.91,1.47,0,2.6-.07,3.41-.22,1.26-.23,2.71-.71,4.34-1.46v-7.93c0-.39-.31-.84-.93-1.33-.46-.35-.91-.71-1.36-1.08-.06-.08-.08-.21-.05-.37.03-.17.19-.25.48-.25.21-.02.83,0,1.86.08s1.76.11,2.17.11c.83,0,1.67-.03,2.53-.09.86-.06,1.34-.09,1.44-.09.37,0,.56.11.56.34,0,.12-.04.24-.12.34-.04.06-.46.4-1.27,1.02-.64.5-.96.94-.96,1.33v37.34c0,.39.31.83.93,1.3.83.63,1.26.97,1.3,1.03Z"/>
      <path class="cls-2" d="M433.75,415.01c0,.59-.34,1.2-1.02,1.83-.79.72-1.66,1.08-2.63,1.08-1.45,0-2.64-.69-3.59-2.07-.87-1.27-1.3-2.73-1.3-4.38-1.69,2.17-3.69,3.8-5.98,4.9-2.17,1.03-4.54,1.55-7.1,1.55-4.71,0-8.38-1.85-11-5.55-2.42-3.39-3.62-7.78-3.62-13.17,0-2.97.87-6.11,2.6-9.39,1.38-2.62,3.33-5.34,5.83-8.15,1.86-2.09,3.82-4.01,5.89-5.76-.5.25-1.03.43-1.6.54s-1.17.17-1.81.17c-.48,0-.93-.03-1.36-.09-1.8-.45-3.6-.91-5.39-1.36-.46,0-.85.14-1.18.42-.33.28-.5.64-.5,1.07-.02.31.05.57.22.79s.38.35.65.39c.37,0,.65-.04.84-.12.19-.12.32-.21.4-.25.08-.08.16-.11.25-.09.12.02.19.16.19.4,0,.54-.17,1.05-.5,1.55-.46.66-1.05.99-1.8.99-.62,0-1.12-.24-1.5-.73s-.57-1.08-.57-1.78c0-.25.05-.55.15-.9.29-.99.96-1.9,2.01-2.73,1.16-.91,2.35-1.36,3.56-1.36.81,0,1.66.13,2.57.4,2.03.6,3.42.9,4.18.9.89,0,1.69-.12,2.42-.37.33-.1.76-.31,1.3-.62.25-.1.41-.15.5-.15.17,0,.39.18.68.53.31.31.46.56.46.74s-.09.37-.28.56c-1.12.83-2.2,1.72-3.25,2.68-1.05.96-2.08,2.05-3.07,3.27-1.55,1.88-2.82,3.67-3.81,5.36-1.18,2-2.06,4.02-2.63,6.04-.66,2.31-.99,4.75-.99,7.31,0,4.07.89,7.47,2.67,10.2,2.09,3.2,5.06,4.8,8.93,4.8,2.5,0,4.81-.58,6.94-1.74,1.73-.95,3.29-2.25,4.65-3.91v-32.29c0-.39-.31-.84-.93-1.33-.46-.35-.91-.71-1.36-1.08-.06-.08-.08-.21-.05-.37.03-.17.19-.25.48-.25.21-.02.83,0,1.86.08s1.76.11,2.17.11c.83,0,1.67-.03,2.53-.09.86-.06,1.34-.09,1.44-.09.37,0,.56.11.56.34,0,.12-.04.24-.12.34-.04.06-.46.4-1.27,1.02-.64.5-.96.94-.96,1.33v33.41c0,1.53.14,2.74.43,3.63.39,1.18,1.01,1.77,1.86,1.77.37,0,.67-.05.88-.14.22-.09.46-.27.73-.54.06-.08.13-.12.22-.12.06,0,.11.05.16.16.04.12.04.24,0,.34Z"/>
      <path class="cls-2" d="M475.06,372.99c0,1.16-.52,2.11-1.55,2.85s-2.25,1.12-3.66,1.12c-1.53,0-3.14-.28-4.83-.84-3.7-1.22-6.24-1.83-7.62-1.83-4.59,0-8.39,1.95-11.4,5.85-2.85,3.67-4.28,8.04-4.28,13.1,0,6.11,1.78,11.37,5.33,15.76,3.68,4.54,8.2,6.81,13.57,6.81.56,0,1.26-.04,2.09-.12.84-.08,1.86-.3,3.05-.65,1.2-.35,2.07-.74,2.6-1.18-.35-.33-.65-.68-.9-1.05-.17-.27-.38-.67-.63-1.19-.26-.53-.42-1.18-.48-1.96s-.09-1.8-.09-3.03v-13.87c-.83.37-1.55.63-2.17.78-.62.14-1.37.22-2.23.22s-1.94-.42-3.35-1.27c-1.41-.85-2.52-1.27-3.35-1.27-.64,0-1.22.15-1.75.45-.53.3-.79.75-.79,1.35,0,1.28.56,1.86,1.67,1.74.35-.06.62-.14.82-.23.2-.09.34-.2.42-.33.06-.1.13-.16.22-.16.1,0,.16.07.16.22.1.27.15.57.15.9,0,.17-.02.38-.06.63-.04.26-.29.57-.74.95-.46.37-.96.56-1.52.56-.91,0-1.61-.35-2.09-1.05-.49-.7-.73-1.52-.73-2.45,0-.21,0-.36.03-.46.14-1.41.75-2.54,1.83-3.41,1.07-.87,2.37-1.3,3.88-1.3,1.4,0,2.77.25,4.09.74,2.87,1.07,5.12,1.61,6.76,1.61.76,0,1.57-.13,2.42-.4.91-.33,1.82-.67,2.73-1.02.29,0,.37.12.25.37-.31.37-.62.73-.93,1.08-.91,1.18-1.36,2.41-1.36,3.69v13.14c0,1.65.33,3.06.99,4.21.23.39.72,1.01,1.49,1.86.1.12.15.24.15.34s-.07.22-.22.34c-.85.64-2.57,1.31-5.18,2.01-3.1.85-5.92,1.27-8.46,1.27-6.24,0-11.52-2.34-15.84-7.03-4.24-4.61-6.35-10.11-6.35-16.52s1.84-11.21,5.52-15.34c3.84-4.32,8.78-6.48,14.81-6.48,2.02,0,4.28.4,6.76,1.21,2.48.81,3.97,1.21,4.46,1.21,1.78,0,2.66-.64,2.66-1.92,0-.54-.16-.94-.48-1.21s-.7-.4-1.13-.4c-.17-.04-.33-.04-.5.02-.17.05-.29.09-.37.11-.12.06-.23.08-.31.06s-.12-.08-.12-.19c0-.12.04-.27.12-.43.27-.6.68-1.05,1.24-1.35.56-.3,1.16-.45,1.8-.45,1.12,0,1.96.37,2.54,1.1s.87,1.65.87,2.74Z"/>
      <path class="cls-2" d="M517.67,416.2s.07.1.09.18c.02.06.03.11.03.15,0,.22-.19.33-.56.33-.21.02-.82,0-1.85-.08-1.02-.07-1.73-.11-2.12-.11-.66,0-1.65.05-2.98.15-.49.04-.85.05-1.05.03-.35,0-.53-.12-.53-.37,0-.1.03-.19.09-.25.06-.08.51-.44,1.33-1.08.64-.5.96-.94.96-1.33v-27.02c-1.16.5-2.48.86-3.98,1.08-1.5.23-2.98.34-4.45.34-1.65,0-3.57-.24-5.76-.71-2.19-.47-4.11-1.08-5.76-1.83v28.17c0,.39.31.83.94,1.3.84.63,1.28.97,1.32,1.03.04.04.07.1.09.18.02.06.03.11.03.15,0,.22-.19.33-.56.33-.21.02-.82,0-1.85-.08-1.03-.07-1.74-.11-2.13-.11-.66,0-1.66.05-2.98.15-.5.04-.85.05-1.06.03-.35,0-.53-.12-.53-.37,0-.1.03-.19.09-.25.06-.08.51-.44,1.33-1.08.64-.5.96-.94.96-1.33v-28.39c-.29-.04-.54-.06-.74-.06-1.37,0-2.6.32-3.72.96-1.32.76-1.98,1.77-1.98,3.01,0,.6.13,1.08.4,1.46.17.23.42.44.78.65.35.21.83.31,1.43.31.27,0,.46-.02.56-.06.25-.06.37.01.37.22,0,.12-.08.26-.25.4-.35.31-.73.56-1.15.74-.62.29-1.25.43-1.89.43-1.03,0-1.91-.28-2.63-.84-.89-.68-1.33-1.64-1.33-2.88,0-1.38.37-2.57,1.12-3.56.64-.83,1.57-1.56,2.79-2.2.64-.35,1.43-.63,2.36-.84,1.16-.27,2.46-.4,3.9-.4v-6.26c0-.39-.31-.84-.93-1.33-.45-.35-.91-.71-1.36-1.08-.06-.08-.08-.21-.05-.37.03-.17.19-.25.48-.25.21-.02.83,0,1.87.08,1.04.07,1.76.11,2.18.11.83,0,1.67-.03,2.54-.09.86-.06,1.34-.09,1.45-.09.37,0,.56.11.56.34,0,.12-.04.24-.12.34-.04.06-.47.4-1.29,1.02-.65.5-.97.94-.97,1.33v6.63c1.63.76,3.62,1.45,5.95,2.06,2.33.61,4.42.91,6.26.91,1.47,0,2.6-.07,3.41-.22,1.26-.23,2.71-.71,4.34-1.46v-7.93c0-.39-.31-.84-.93-1.33-.46-.35-.91-.71-1.36-1.08-.06-.08-.08-.21-.05-.37.03-.17.19-.25.48-.25.21-.02.83,0,1.86.08s1.76.11,2.17.11c.83,0,1.67-.03,2.53-.09.86-.06,1.34-.09,1.44-.09.37,0,.56.11.56.34,0,.12-.04.24-.12.34-.04.06-.46.4-1.27,1.02-.64.5-.96.94-.96,1.33v37.34c0,.39.31.83.93,1.3.83.63,1.26.97,1.3,1.03Z"/>
    </g>
    <g>
      <path class="cls-2" d="M531.85,416.87v-45.79h20.32c2.06,0,3.99.43,5.77,1.29,1.78.86,3.33,2.02,4.64,3.48s2.32,3.1,3.03,4.9c.71,1.81,1.06,3.66,1.06,5.55s-.33,3.78-1,5.55c-.67,1.76-1.62,3.32-2.87,4.68s-2.71,2.4-4.39,3.13l10.45,17.22h-9.8l-9.42-15.35h-8.9v15.35h-8.9ZM540.75,393.72h11.16c1.12,0,2.11-.33,2.97-1,.86-.67,1.55-1.56,2.06-2.68.52-1.12.77-2.36.77-3.74s-.3-2.69-.9-3.8c-.6-1.12-1.35-2-2.26-2.64-.9-.65-1.89-.97-2.97-.97h-10.84v14.83Z"/>
      <path class="cls-2" d="M594.03,417.2c-3.35,0-6.39-.64-9.09-1.93s-5.05-3.04-7.03-5.26c-1.98-2.21-3.5-4.71-4.58-7.48-1.08-2.77-1.61-5.62-1.61-8.55s.57-5.97,1.71-8.74c1.14-2.77,2.71-5.25,4.71-7.42,2-2.17,4.38-3.89,7.13-5.16,2.75-1.27,5.74-1.9,8.96-1.9s6.33.67,9.06,2c2.73,1.33,5.06,3.12,7,5.35,1.94,2.24,3.43,4.73,4.48,7.48s1.58,5.59,1.58,8.51-.55,5.9-1.65,8.68c-1.1,2.77-2.64,5.25-4.64,7.42-2,2.17-4.37,3.88-7.09,5.13-2.73,1.25-5.71,1.87-8.93,1.87ZM580.74,393.98c0,1.98.3,3.89.9,5.74.6,1.85,1.47,3.49,2.61,4.93,1.14,1.44,2.54,2.58,4.19,3.42,1.65.84,3.54,1.26,5.64,1.26s4.11-.44,5.74-1.32c1.63-.88,3.02-2.05,4.16-3.51s1.99-3.12,2.55-4.97c.56-1.85.84-3.7.84-5.55,0-1.98-.3-3.88-.9-5.71-.6-1.83-1.48-3.46-2.64-4.9-1.16-1.44-2.56-2.58-4.19-3.42-1.63-.84-3.5-1.26-5.61-1.26s-3.99.44-5.64,1.32c-1.66.88-3.05,2.04-4.19,3.48-1.14,1.44-2,3.08-2.58,4.9-.58,1.83-.87,3.69-.87,5.58Z"/>
      <path class="cls-2" d="M620.47,393.59c0-2.84.51-5.6,1.52-8.29,1.01-2.69,2.49-5.13,4.45-7.32,1.96-2.19,4.33-3.94,7.13-5.26,2.79-1.31,5.96-1.97,9.48-1.97,4.21,0,7.86.92,10.93,2.77,3.07,1.85,5.34,4.26,6.8,7.22l-6.77,4.71c-.77-1.72-1.78-3.07-3.03-4.06-1.25-.99-2.59-1.7-4.03-2.13-1.44-.43-2.83-.64-4.16-.64-2.24,0-4.18.45-5.84,1.35-1.66.9-3.03,2.09-4.13,3.55-1.1,1.46-1.92,3.1-2.48,4.9-.56,1.81-.84,3.63-.84,5.48,0,1.98.32,3.9.97,5.77.64,1.87,1.56,3.53,2.74,4.97,1.18,1.44,2.6,2.58,4.26,3.42,1.66.84,3.47,1.26,5.45,1.26,1.38,0,2.79-.24,4.26-.71,1.46-.47,2.82-1.23,4.06-2.26s2.26-2.39,3.03-4.06l7.22,4.26c-.95,2.28-2.44,4.21-4.48,5.81-2.04,1.59-4.32,2.79-6.84,3.61-2.51.82-5.02,1.23-7.51,1.23-3.27,0-6.25-.68-8.93-2.03s-5.02-3.16-7-5.42c-1.98-2.26-3.51-4.79-4.61-7.61-1.1-2.82-1.65-5.67-1.65-8.55Z"/>
      <path class="cls-2" d="M664.14,393.59c0-2.84.51-5.6,1.52-8.29,1.01-2.69,2.49-5.13,4.45-7.32,1.96-2.19,4.33-3.94,7.13-5.26,2.79-1.31,5.96-1.97,9.48-1.97,4.21,0,7.86.92,10.93,2.77,3.07,1.85,5.34,4.26,6.8,7.22l-6.77,4.71c-.77-1.72-1.78-3.07-3.03-4.06-1.25-.99-2.59-1.7-4.03-2.13-1.44-.43-2.83-.64-4.16-.64-2.24,0-4.18.45-5.84,1.35-1.66.9-3.03,2.09-4.13,3.55-1.1,1.46-1.92,3.1-2.48,4.9-.56,1.81-.84,3.63-.84,5.48,0,1.98.32,3.9.97,5.77.64,1.87,1.56,3.53,2.74,4.97,1.18,1.44,2.6,2.58,4.26,3.42,1.66.84,3.47,1.26,5.45,1.26,1.38,0,2.79-.24,4.26-.71,1.46-.47,2.82-1.23,4.06-2.26s2.26-2.39,3.03-4.06l7.22,4.26c-.95,2.28-2.44,4.21-4.48,5.81-2.04,1.59-4.32,2.79-6.84,3.61-2.51.82-5.02,1.23-7.51,1.23-3.27,0-6.25-.68-8.93-2.03s-5.02-3.16-7-5.42c-1.98-2.26-3.51-4.79-4.61-7.61-1.1-2.82-1.65-5.67-1.65-8.55Z"/>
      <path class="cls-2" d="M722.97,371.08h9.03l16.83,45.79h-9.16l-3.81-11.42h-16.81l-3.83,11.42h-9.16l16.9-45.79ZM733.78,399.2l-6.3-18.9-6.33,18.9h12.63Z"/>
    </g>
    <g>
      <path class="cls-2" d="M779.6,462.26c0-1.53.44-2.85,1.31-3.97.88-1.12,2.09-1.98,3.62-2.59,1.54-.61,3.32-.92,5.36-.92,1.08,0,2.21.08,3.42.25,1.2.17,2.26.42,3.19.76v-1.74c0-1.82-.55-3.25-1.66-4.3-1.11-1.05-2.68-1.57-4.71-1.57-1.32,0-2.59.24-3.81.72-1.22.48-2.5,1.16-3.86,2.05l-1.48-2.86c1.57-1.08,3.14-1.88,4.71-2.42,1.57-.54,3.2-.81,4.89-.81,3.08,0,5.51.85,7.29,2.54,1.78,1.69,2.68,4.05,2.68,7.07v10.11c0,.49.1.85.3,1.08.2.23.53.36.99.39v3.14c-.4.06-.75.11-1.04.14-.29.03-.53.05-.72.05-.95,0-1.67-.26-2.15-.79-.48-.52-.75-1.08-.81-1.66l-.09-1.52c-1.05,1.35-2.42,2.4-4.11,3.14-1.69.74-3.37,1.11-5.03,1.11s-3.03-.33-4.29-.99c-1.26-.66-2.25-1.54-2.96-2.66-.71-1.12-1.06-2.36-1.06-3.74ZM795.29,463.94c.37-.43.66-.86.88-1.3.21-.44.32-.81.32-1.12v-2.97c-.96-.37-1.96-.65-3-.85-1.05-.2-2.08-.3-3.09-.3-2.06,0-3.73.4-5.01,1.21s-1.92,1.91-1.92,3.31c0,.76.21,1.5.62,2.22.42.72,1.03,1.3,1.85,1.76.81.46,1.82.69,3.02.69,1.26,0,2.46-.25,3.6-.75,1.14-.5,2.04-1.14,2.72-1.9Z"/>
      <path class="cls-2" d="M827.98,469.18h-4.06v-13.36c0-2.53-.39-4.38-1.18-5.56-.78-1.17-1.98-1.76-3.58-1.76-1.11,0-2.21.27-3.3.82-1.09.55-2.06,1.29-2.91,2.21-.85.93-1.46,2-1.82,3.22v14.43h-4.06v-23.96h3.69v5.17c.65-1.13,1.48-2.11,2.49-2.93,1.02-.82,2.17-1.47,3.46-1.92,1.29-.46,2.65-.69,4.06-.69s2.55.25,3.48.76c.94.5,1.68,1.21,2.22,2.11.54.9.92,1.96,1.15,3.18s.35,2.55.35,3.99v14.29Z"/>
      <path class="cls-2" d="M832.73,457.27c0-2.26.47-4.33,1.41-6.21s2.23-3.38,3.88-4.51c1.64-1.13,3.53-1.7,5.65-1.7,1.94,0,3.68.51,5.22,1.52s2.74,2.25,3.6,3.69v-14.59h4.06v29.08c0,.49.1.85.3,1.08.2.23.53.36.99.39v3.14c-.77.12-1.37.18-1.8.18-.8,0-1.5-.28-2.1-.83s-.9-1.17-.9-1.85v-2.03c-.95,1.54-2.23,2.75-3.83,3.65s-3.26,1.34-4.98,1.34-3.19-.33-4.59-.99-2.62-1.57-3.65-2.73c-1.03-1.16-1.83-2.48-2.4-3.96-.57-1.48-.86-3.05-.86-4.7ZM852.49,460.79v-6.85c-.37-1.04-.97-1.97-1.8-2.81-.83-.84-1.76-1.51-2.79-2.01-1.03-.5-2.05-.75-3.07-.75-1.2,0-2.29.25-3.25.75-.97.5-1.8,1.17-2.49,2.01-.69.84-1.22,1.79-1.59,2.86s-.55,2.18-.55,3.33.21,2.32.62,3.38c.42,1.07,1,2.01,1.75,2.83s1.63,1.46,2.63,1.92c1,.46,2.08.69,3.25.69.74,0,1.5-.14,2.29-.41s1.53-.65,2.24-1.14c.71-.49,1.31-1.06,1.8-1.71.49-.66.81-1.35.97-2.08Z"/>
      <path class="cls-2" d="M873.45,457.27c0-2.26.47-4.33,1.41-6.21s2.23-3.38,3.88-4.51c1.64-1.13,3.53-1.7,5.65-1.7,1.94,0,3.68.51,5.22,1.52s2.74,2.25,3.6,3.69v-14.59h4.06v29.08c0,.49.1.85.3,1.08.2.23.53.36.99.39v3.14c-.77.12-1.37.18-1.8.18-.8,0-1.5-.28-2.1-.83s-.9-1.17-.9-1.85v-2.03c-.95,1.54-2.23,2.75-3.83,3.65s-3.26,1.34-4.98,1.34-3.19-.33-4.59-.99-2.62-1.57-3.65-2.73c-1.03-1.16-1.83-2.48-2.4-3.96-.57-1.48-.86-3.05-.86-4.7ZM893.21,460.79v-6.85c-.37-1.04-.97-1.97-1.8-2.81-.83-.84-1.76-1.51-2.79-2.01-1.03-.5-2.05-.75-3.07-.75-1.2,0-2.29.25-3.25.75-.97.5-1.8,1.17-2.49,2.01-.69.84-1.22,1.79-1.59,2.86s-.55,2.18-.55,3.33.21,2.32.62,3.38c.42,1.07,1,2.01,1.75,2.83s1.63,1.46,2.63,1.92c1,.46,2.08.69,3.25.69.74,0,1.5-.14,2.29-.41s1.53-.65,2.24-1.14c.71-.49,1.31-1.06,1.8-1.71.49-.66.81-1.35.97-2.08Z"/>
      <path class="cls-2" d="M914.72,469.64c-1.82,0-3.47-.33-4.96-.99-1.49-.66-2.79-1.56-3.88-2.7-1.09-1.15-1.94-2.47-2.54-3.96-.6-1.5-.9-3.08-.9-4.77,0-2.26.52-4.32,1.57-6.19,1.05-1.86,2.5-3.36,4.36-4.49,1.86-1.13,3.99-1.7,6.39-1.7s4.55.57,6.35,1.72c1.8,1.15,3.2,2.64,4.2,4.49s1.5,3.84,1.5,5.99c0,.31,0,.6-.02.89-.02.29-.04.51-.07.67h-19.99c.12,1.55.56,2.93,1.31,4.13.75,1.2,1.73,2.15,2.93,2.83,1.2.68,2.49,1.03,3.88,1.03,1.48,0,2.87-.37,4.18-1.11,1.31-.74,2.21-1.71,2.7-2.91l3.51.97c-.52,1.17-1.3,2.22-2.33,3.14-1.03.92-2.25,1.65-3.65,2.17-1.4.52-2.92.79-4.55.79ZM906.59,455.79h16.43c-.12-1.55-.57-2.92-1.34-4.11s-1.75-2.11-2.96-2.78c-1.2-.67-2.52-1-3.97-1s-2.72.33-3.92,1c-1.2.67-2.18,1.6-2.93,2.78-.76,1.19-1.19,2.56-1.32,4.11Z"/>
      <path class="cls-2" d="M937.62,469.18l-9.46-23.96h4.25l7.57,20.1,7.57-20.1h3.97l-9.46,23.96h-4.43Z"/>
      <path class="cls-2" d="M965.41,469.64c-1.82,0-3.47-.33-4.96-.99-1.49-.66-2.79-1.56-3.88-2.7-1.09-1.15-1.94-2.47-2.54-3.96-.6-1.5-.9-3.08-.9-4.77,0-2.26.52-4.32,1.57-6.19,1.05-1.86,2.5-3.36,4.36-4.49,1.86-1.13,3.99-1.7,6.39-1.7s4.55.57,6.35,1.72c1.8,1.15,3.2,2.64,4.2,4.49s1.5,3.84,1.5,5.99c0,.31,0,.6-.02.89-.02.29-.04.51-.07.67h-19.99c.12,1.55.56,2.93,1.31,4.13.75,1.2,1.73,2.15,2.93,2.83,1.2.68,2.49,1.03,3.88,1.03,1.48,0,2.87-.37,4.18-1.11,1.31-.74,2.21-1.71,2.7-2.91l3.51.97c-.52,1.17-1.3,2.22-2.33,3.14-1.03.92-2.25,1.65-3.65,2.17-1.4.52-2.92.79-4.55.79ZM957.28,455.79h16.43c-.12-1.55-.57-2.92-1.34-4.11s-1.75-2.11-2.96-2.78c-1.2-.67-2.52-1-3.97-1s-2.72.33-3.92,1c-1.2.67-2.18,1.6-2.93,2.78-.76,1.19-1.19,2.56-1.32,4.11Z"/>
      <path class="cls-2" d="M982.12,435.48h4.06v27.59c0,1.33.19,2.15.55,2.46.37.31.81.46,1.34.46.65,0,1.26-.07,1.85-.21.58-.14,1.08-.28,1.48-.44l.65,3.32c-.68.28-1.48.51-2.4.69s-1.74.28-2.45.28c-1.57,0-2.81-.45-3.72-1.34-.91-.9-1.36-2.15-1.36-3.76v-29.06Z"/>
      <path class="cls-2" d="M1005.75,469.64c-1.81,0-3.46-.33-4.94-.99-1.48-.66-2.75-1.56-3.83-2.7-1.08-1.15-1.91-2.47-2.49-3.96s-.88-3.07-.88-4.72.29-3.27.88-4.77,1.42-2.82,2.49-3.96c1.08-1.15,2.36-2.05,3.85-2.7,1.49-.66,3.13-.99,4.92-.99s3.46.33,4.94.99c1.48.66,2.76,1.56,3.86,2.7s1.93,2.47,2.52,3.96.88,3.09.88,4.77-.29,3.22-.88,4.72-1.42,2.82-2.49,3.96c-1.08,1.15-2.36,2.05-3.86,2.7s-3.15.99-4.96.99ZM997.77,457.32c0,1.64.36,3.14,1.09,4.48.72,1.34,1.69,2.4,2.88,3.17,1.2.78,2.54,1.17,4.02,1.17s2.82-.4,4.04-1.19c1.21-.79,2.18-1.87,2.91-3.22.72-1.36,1.08-2.86,1.08-4.5s-.36-3.14-1.08-4.48c-.72-1.34-1.69-2.41-2.91-3.2-1.22-.79-2.56-1.19-4.04-1.19s-2.81.4-4.02,1.21c-1.2.81-2.16,1.88-2.88,3.22-.72,1.34-1.09,2.85-1.09,4.52Z"/>
      <path class="cls-2" d="M1035.85,469.64c-1.97,0-3.72-.49-5.26-1.47-1.54-.98-2.76-2.21-3.65-3.71v14.55h-4.06v-33.79h3.6v4.53c.95-1.47,2.2-2.65,3.74-3.55,1.54-.9,3.21-1.35,5.03-1.35,1.66,0,3.19.34,4.57,1.01,1.38.67,2.58,1.59,3.6,2.75,1.02,1.16,1.81,2.48,2.38,3.96.57,1.48.85,3.03.85,4.65,0,2.26-.46,4.34-1.36,6.23-.91,1.89-2.18,3.4-3.81,4.51-1.63,1.12-3.51,1.67-5.63,1.67ZM1034.61,466.13c1.2,0,2.29-.25,3.25-.75.97-.5,1.8-1.17,2.49-2.01.69-.84,1.22-1.79,1.59-2.86.37-1.07.55-2.16.55-3.29,0-1.19-.21-2.32-.62-3.38-.42-1.07-1-2.01-1.76-2.83s-1.63-1.47-2.63-1.94-2.08-.71-3.25-.71c-.74,0-1.5.14-2.29.41s-1.53.66-2.24,1.16c-.71.5-1.31,1.07-1.8,1.71-.49.64-.82,1.32-.97,2.05v6.83c.46,1.03,1.08,1.98,1.85,2.83.77.85,1.66,1.53,2.68,2.03s2.06.75,3.14.75Z"/>
      <path class="cls-2" d="M1062.3,469.64c-1.82,0-3.47-.33-4.96-.99-1.49-.66-2.79-1.56-3.88-2.7s-1.94-2.47-2.54-3.96-.9-3.08-.9-4.77c0-2.26.52-4.32,1.57-6.19,1.04-1.86,2.5-3.36,4.36-4.49,1.86-1.13,3.99-1.7,6.39-1.7s4.55.57,6.35,1.72c1.8,1.15,3.2,2.64,4.2,4.49s1.5,3.84,1.5,5.99c0,.31,0,.6-.02.89s-.04.51-.07.67h-19.99c.12,1.55.56,2.93,1.32,4.13.75,1.2,1.73,2.15,2.93,2.83,1.2.68,2.49,1.03,3.88,1.03,1.48,0,2.87-.37,4.18-1.11,1.31-.74,2.21-1.71,2.7-2.91l3.51.97c-.52,1.17-1.3,2.22-2.33,3.14-1.03.92-2.25,1.65-3.65,2.17-1.4.52-2.92.79-4.55.79ZM1054.18,455.79h16.44c-.12-1.55-.57-2.92-1.34-4.11s-1.75-2.11-2.95-2.78c-1.2-.67-2.53-1-3.97-1s-2.72.33-3.92,1c-1.2.67-2.18,1.6-2.93,2.78s-1.19,2.56-1.32,4.11Z"/>
      <path class="cls-2" d="M1091.66,448.64c-2.03.03-3.82.55-5.38,1.55-1.55,1-2.65,2.38-3.3,4.13v14.87h-4.06v-23.96h3.79v5.45c.83-1.66,1.93-3.01,3.3-4.04s2.81-1.61,4.32-1.73h.79c.21,0,.4.02.55.05v3.69Z"/>
      <path class="cls-2" d="M1090.92,472.92l.92-4.11h-1.38v-4.8h3.83v4.8l-1.38,4.11h-1.99Z"/>
    </g>
    <g>
      <path class="cls-2" d="M1055.86,504.29c-.7-.39-1.47-.58-2.31-.58s-1.58.19-2.28.58c-.7.39-1.27.93-1.7,1.62-.44.69-.69,1.49-.76,2.39h9.55c-.07-.9-.33-1.7-.78-2.39-.45-.69-1.02-1.23-1.72-1.62Z"/>
      <path class="cls-2" d="M903.63,504.41c-.6-.29-1.19-.44-1.78-.44-.7,0-1.33.15-1.89.44-.56.29-1.05.68-1.45,1.17-.4.49-.71,1.04-.92,1.66-.21.62-.32,1.27-.32,1.94s.12,1.34.36,1.96.58,1.17,1.02,1.65c.44.48.95.85,1.53,1.11.58.27,1.21.4,1.89.4.43,0,.87-.08,1.33-.24s.89-.38,1.3-.66.76-.62,1.05-1c.29-.38.47-.78.56-1.21v-3.98c-.21-.6-.56-1.15-1.05-1.63-.48-.49-1.02-.88-1.62-1.17Z"/>
      <path class="cls-2" d="M888.41,504.29c-.7-.39-1.47-.58-2.31-.58s-1.58.19-2.28.58c-.7.39-1.27.93-1.7,1.62-.44.69-.69,1.49-.76,2.39h9.55c-.07-.9-.33-1.7-.78-2.39-.45-.69-1.02-1.23-1.72-1.62Z"/>
      <path class="cls-2" d="M1038.51,504.39c-.59-.28-1.2-.42-1.82-.42-.71,0-1.35.15-1.92.46s-1.04.71-1.43,1.22c-.39.51-.7,1.08-.91,1.7s-.32,1.26-.32,1.9c0,.7.12,1.35.38,1.97.25.62.59,1.17,1.02,1.65.43.48.94.86,1.53,1.13.59.27,1.22.4,1.88.4.5,0,.98-.09,1.45-.27s.89-.42,1.29-.71.72-.63.99-1.01c.27-.38.45-.76.54-1.15v-4.02c-.25-.64-.61-1.21-1.07-1.7-.46-.49-.99-.88-1.58-1.15Z"/>
      <path class="cls-2" d="M857.11,509.23c-1.2,0-2.17.24-2.91.7s-1.11,1.11-1.11,1.92c0,.44.12.87.36,1.29s.6.76,1.07,1.02c.47.27,1.06.4,1.76.4.73,0,1.43-.15,2.09-.44.66-.29,1.19-.66,1.58-1.1.21-.25.38-.5.51-.76.12-.26.19-.47.19-.65v-1.73c-.55-.21-1.14-.38-1.74-.49-.61-.11-1.21-.17-1.8-.17Z"/>
      <path class="cls-2" d="M844.44,504.7c-.69-.49-1.49-.73-2.4-.73-.66,0-1.28.15-1.85.45s-1.08.69-1.51,1.18c-.44.49-.8,1.02-1.09,1.61v4.01c.09.44.28.85.56,1.22.29.37.63.69,1.05.97s.84.49,1.3.65.9.24,1.33.24c.7,0,1.34-.14,1.93-.42.59-.28,1.1-.66,1.53-1.14.43-.48.76-1.03.99-1.65s.35-1.26.35-1.91c0-.9-.19-1.75-.58-2.55-.38-.8-.92-1.44-1.61-1.92Z"/>
      <path class="cls-2" d="M1079.56,487.6h-247.32c-9.77,0-17.69,8.9-17.69,19.88h0c0,10.98,7.92,19.88,17.69,19.88h247.32c9.77,0,17.69-8.9,17.69-19.88h0c0-10.98-7.92-19.88-17.69-19.88ZM848.55,511.93c-.33.86-.8,1.62-1.41,2.29-.61.67-1.31,1.18-2.11,1.56-.8.37-1.67.56-2.62.56-1.09,0-2.08-.27-2.98-.8s-1.6-1.23-2.12-2.09v2.63h-2.09v-19.58h2.36v8.47c.59-.91,1.31-1.64,2.17-2.2.86-.55,1.86-.83,3-.83.97,0,1.83.2,2.6.6.77.4,1.43.94,1.97,1.62.54.68.96,1.46,1.26,2.32.29.86.44,1.76.44,2.7s-.17,1.89-.5,2.75ZM863.77,516.07c-.23.04-.43.06-.6.08s-.31.03-.42.03c-.55,0-.97-.15-1.25-.46-.28-.3-.43-.63-.47-.97l-.05-.88c-.61.79-1.4,1.39-2.39,1.82-.98.43-1.96.64-2.92.64s-1.76-.19-2.49-.57c-.73-.38-1.31-.9-1.72-1.55s-.62-1.37-.62-2.17c0-.89.25-1.66.76-2.31.51-.65,1.21-1.15,2.11-1.51s1.93-.53,3.11-.53c.62,0,1.29.05,1.98.15.7.1,1.31.25,1.85.44v-1.01c0-1.06-.32-1.89-.97-2.5s-1.56-.91-2.74-.91c-.77,0-1.51.14-2.21.42s-1.45.67-2.24,1.19l-.86-1.66c.91-.62,1.82-1.09,2.74-1.41.91-.31,1.86-.47,2.84-.47,1.79,0,3.2.49,4.24,1.48,1.04.98,1.55,2.35,1.55,4.11v5.88c0,.28.06.49.17.62.12.13.31.21.58.23v1.82ZM875.57,515.23c-1,.74-2.32,1.1-3.97,1.1-1.16,0-2.25-.19-3.27-.58-1.02-.38-1.9-.96-2.63-1.73l.91-1.66c.8.75,1.61,1.29,2.41,1.61s1.63.48,2.47.48c.96,0,1.75-.18,2.36-.54s.91-.89.91-1.6c0-.51-.16-.9-.47-1.14-.31-.25-.75-.46-1.33-.63-.57-.17-1.25-.36-2.04-.57-.97-.28-1.78-.59-2.44-.91-.66-.32-1.16-.72-1.5-1.2s-.51-1.08-.51-1.81c0-.89.23-1.64.7-2.25s1.1-1.08,1.92-1.4c.81-.32,1.74-.48,2.78-.48s1.98.16,2.82.48c.84.32,1.56.8,2.17,1.42l-1.07,1.64c-.55-.57-1.16-1-1.82-1.27-.66-.28-1.4-.42-2.23-.42-.48,0-.96.06-1.42.17s-.85.32-1.15.61c-.3.29-.46.71-.46,1.24,0,.44.12.79.36,1.05.24.26.6.47,1.07.65.47.18,1.05.37,1.73.58,1.05.3,1.97.6,2.75.9.78.3,1.38.69,1.81,1.17.43.48.64,1.14.64,1.99,0,1.31-.5,2.33-1.5,3.07ZM893.09,509.54c0,.17-.02.3-.04.39h-11.61c.07.9.33,1.7.76,2.4s1.01,1.25,1.7,1.64c.7.4,1.45.6,2.25.6.86,0,1.67-.21,2.43-.64s1.28-.99,1.57-1.69l2.04.56c-.3.68-.76,1.29-1.35,1.82-.6.54-1.31.96-2.12,1.26s-1.69.46-2.64.46c-1.05,0-2.02-.19-2.88-.57-.87-.38-1.62-.9-2.25-1.57-.63-.67-1.13-1.43-1.47-2.3-.35-.87-.52-1.79-.52-2.77,0-1.31.3-2.51.91-3.59.61-1.08,1.45-1.95,2.53-2.61,1.08-.66,2.32-.99,3.71-.99s2.64.33,3.69,1,1.86,1.54,2.44,2.61c.58,1.07.87,2.23.87,3.48,0,.18,0,.35-.01.52ZM909.41,516.07c-.45.07-.8.11-1.05.11-.46,0-.87-.16-1.22-.48-.35-.32-.52-.68-.52-1.07v-1.18c-.55.89-1.3,1.6-2.23,2.12s-1.9.78-2.9.78-1.86-.19-2.67-.57c-.81-.38-1.52-.91-2.12-1.58-.6-.67-1.06-1.44-1.39-2.3-.33-.86-.5-1.77-.5-2.73,0-1.31.27-2.52.82-3.61.54-1.09,1.3-1.96,2.25-2.62.96-.66,2.05-.99,3.29-.99,1.13,0,2.14.29,3.03.88.89.59,1.59,1.31,2.09,2.15v-8.47h2.36v16.9c0,.29.06.5.17.63.12.13.31.21.58.23v1.82ZM921.74,516.07h-2.36v-14h2.36v14ZM921.74,499.44h-2.36v-2.95h2.36v2.95ZM937.7,516.07h-2.36v-7.76c0-1.47-.23-2.55-.68-3.23-.46-.68-1.15-1.02-2.08-1.02-.64,0-1.28.16-1.92.48s-1.2.75-1.69,1.29c-.49.54-.84,1.16-1.06,1.87v8.38h-2.36v-13.92h2.15v3.01c.38-.66.86-1.22,1.45-1.7.59-.48,1.26-.85,2.01-1.12s1.54-.4,2.36-.4,1.48.15,2.02.44c.54.29.97.7,1.29,1.22.31.52.54,1.14.67,1.85s.2,1.48.2,2.31v8.3ZM964.01,516.07h-2.04v-2.6c-1.65,1.82-3.58,2.74-5.79,2.74-1.25,0-2.42-.27-3.5-.82-1.08-.55-2.02-1.28-2.83-2.2s-1.43-1.96-1.88-3.11c-.45-1.15-.67-2.35-.67-3.58s.22-2.51.67-3.66c.45-1.15,1.07-2.18,1.86-3.07.79-.89,1.73-1.59,2.82-2.1,1.08-.51,2.26-.76,3.53-.76,1.84,0,3.36.38,4.56,1.15,1.2.77,2.1,1.77,2.71,3l-1.85,1.29c-.55-1.11-1.31-1.93-2.28-2.47-.97-.54-2.03-.8-3.19-.8-.97,0-1.84.21-2.63.62-.79.41-1.46.97-2.03,1.68-.56.71-.99,1.51-1.29,2.4-.29.89-.44,1.82-.44,2.79,0,1.02.17,1.98.5,2.88.33.9.8,1.7,1.41,2.39.61.69,1.31,1.23,2.12,1.62s1.67.59,2.6.59c1.09,0,2.13-.28,3.11-.83.87-.49,1.7-1.23,2.49-2.19v-2.61h-4.1v-1.82h6.14v9.49ZM974.71,504.14c-1.18.02-2.22.32-3.12.9-.9.58-1.54,1.38-1.92,2.4v8.64h-2.36v-13.92h2.2v3.16c.48-.97,1.12-1.75,1.92-2.35.79-.6,1.63-.93,2.51-1.01h.46c.12,0,.23,0,.32.03v2.15ZM989.4,511.89c-.34.87-.82,1.64-1.45,2.3-.63.67-1.37,1.19-2.24,1.57-.87.38-1.83.57-2.88.57s-2.01-.19-2.87-.57c-.86-.38-1.6-.9-2.23-1.57-.63-.67-1.11-1.43-1.45-2.3-.34-.87-.51-1.78-.51-2.74s.17-1.9.51-2.77c.34-.87.82-1.64,1.45-2.3.63-.67,1.37-1.19,2.24-1.57.87-.38,1.82-.57,2.86-.57s2.01.19,2.87.57c.86.38,1.6.91,2.24,1.57.63.67,1.12,1.43,1.46,2.3.34.87.51,1.79.51,2.77s-.17,1.87-.51,2.74ZM1004.93,516.07h-2.36v-7.76c0-1.47-.23-2.55-.68-3.23-.46-.68-1.15-1.02-2.08-1.02-.64,0-1.28.16-1.92.48s-1.2.75-1.69,1.29c-.49.54-.84,1.16-1.06,1.87v8.38h-2.36v-13.92h2.15v3.01c.38-.66.86-1.22,1.45-1.7.59-.48,1.26-.85,2.01-1.12s1.54-.4,2.36-.4,1.48.15,2.02.44c.54.29.97.7,1.29,1.22.31.52.54,1.14.67,1.85s.2,1.48.2,2.31v8.3ZM1010.97,516.07h-2.36v-14h2.36v14ZM1010.97,499.44h-2.36v-2.95h2.36v2.95ZM1026.92,516.07h-2.36v-7.76c0-1.47-.23-2.55-.68-3.23-.46-.68-1.15-1.02-2.08-1.02-.64,0-1.28.16-1.92.48s-1.2.75-1.69,1.29c-.49.54-.84,1.16-1.06,1.87v8.38h-2.36v-13.92h2.15v3.01c.38-.66.86-1.22,1.45-1.7.59-.48,1.26-.85,2.01-1.12s1.54-.4,2.36-.4,1.48.15,2.02.44c.54.29.97.7,1.29,1.22.31.52.54,1.14.67,1.85s.2,1.48.2,2.31v8.3ZM1043.52,515.93c0,1.32-.32,2.43-.95,3.34s-1.49,1.6-2.57,2.07c-1.08.47-2.28.71-3.61.71-1.57,0-2.86-.28-3.86-.83-1-.55-1.83-1.31-2.49-2.25l1.37-1.21c.55.82,1.27,1.44,2.16,1.85s1.83.62,2.83.62c.86,0,1.65-.15,2.37-.46.72-.3,1.3-.77,1.74-1.4.44-.63.66-1.41.66-2.36v-2.47c-.52.86-1.23,1.54-2.13,2.04-.9.5-1.85.75-2.86.75-.95,0-1.82-.19-2.62-.58-.8-.38-1.48-.91-2.05-1.58s-1.01-1.43-1.33-2.29-.47-1.75-.47-2.68c0-.98.16-1.91.47-2.79s.76-1.65,1.34-2.32c.58-.67,1.26-1.2,2.05-1.58.79-.38,1.66-.58,2.63-.58,1.16,0,2.18.28,3.04.84s1.6,1.28,2.19,2.16v-2.79h2.09v13.78ZM1060.54,509.54c0,.17-.02.3-.04.39h-11.61c.07.9.33,1.7.76,2.4s1.01,1.25,1.7,1.64c.7.4,1.45.6,2.25.6.86,0,1.67-.21,2.43-.64s1.28-.99,1.57-1.69l2.04.56c-.3.68-.76,1.29-1.35,1.82-.6.54-1.31.96-2.12,1.26s-1.69.46-2.64.46c-1.05,0-2.02-.19-2.88-.57-.87-.38-1.62-.9-2.25-1.57-.63-.67-1.13-1.43-1.47-2.3-.35-.87-.52-1.79-.52-2.77,0-1.31.3-2.51.91-3.59.61-1.08,1.45-1.95,2.53-2.61,1.08-.66,2.32-.99,3.71-.99s2.64.33,3.69,1,1.86,1.54,2.44,2.61c.58,1.07.87,2.23.87,3.48,0,.18,0,.35-.01.52ZM1075.33,516.07h-2.36v-7.76c0-1.47-.23-2.55-.68-3.23-.46-.68-1.15-1.02-2.08-1.02-.64,0-1.28.16-1.92.48s-1.2.75-1.69,1.29c-.49.54-.84,1.16-1.06,1.87v8.38h-2.36v-13.92h2.15v3.01c.38-.66.86-1.22,1.45-1.7.59-.48,1.26-.85,2.01-1.12s1.54-.4,2.36-.4,1.48.15,2.02.44c.54.29.97.7,1.29,1.22.31.52.54,1.14.67,1.85s.2,1.48.2,2.31v8.3ZM1080.8,516.07h-1.98v-3h1.98v3Z"/>
      <path class="cls-2" d="M985.18,504.67c-.71-.46-1.49-.69-2.35-.69s-1.64.23-2.33.7-1.26,1.09-1.68,1.87-.63,1.66-.63,2.63.21,1.82.63,2.6.98,1.39,1.68,1.84,1.47.68,2.33.68,1.64-.23,2.35-.69c.71-.46,1.27-1.08,1.69-1.87s.63-1.66.63-2.62-.21-1.82-.63-2.6-.98-1.4-1.69-1.86Z"/>
    </g>
    <g>
      <path class="cls-2" d="M752.76,416.87v-9.29h7.16v9.29h-7.16Z"/>
      <path class="cls-2" d="M799.01,371.07h3.81l19.03,45.79h-4.77l-5.72-14.32h-20.93l-5.72,14.32h-4.84l19.16-45.79ZM809.93,399l-9.05-22.64-9.05,22.64h18.1Z"/>
      <path class="cls-2" d="M839.71,400.26c0-3.16.66-6.06,1.97-8.69,1.31-2.63,3.13-4.74,5.45-6.32,2.32-1.58,4.97-2.37,7.93-2.37,2.79,0,5.3.74,7.51,2.23,2.21,1.48,3.94,3.28,5.19,5.39v-20.7h4.39v41.8c0,.6.13,1.04.39,1.32.26.28.65.44,1.16.48v3.48c-.86.13-1.53.17-2,.13-.9-.04-1.7-.41-2.39-1.1-.69-.69-1.03-1.44-1.03-2.26v-3.29c-1.33,2.19-3.14,3.93-5.42,5.22-2.28,1.29-4.64,1.94-7.09,1.94-2.32,0-4.46-.47-6.42-1.41-1.96-.94-3.66-2.22-5.1-3.85s-2.56-3.48-3.35-5.55c-.8-2.07-1.19-4.22-1.19-6.45ZM867.77,405.38v-10.31c-.56-1.54-1.46-2.93-2.71-4.19-1.25-1.26-2.66-2.26-4.22-3.01-1.57-.75-3.13-1.12-4.68-1.12-1.81,0-3.44.37-4.9,1.12-1.46.75-2.72,1.76-3.77,3.04-1.05,1.28-1.86,2.73-2.42,4.35-.56,1.62-.84,3.29-.84,4.99,0,1.79.31,3.5.94,5.12.62,1.62,1.52,3.06,2.68,4.32s2.49,2.23,4,2.91c1.5.68,3.14,1.02,4.9,1.02,1.12,0,2.28-.21,3.48-.64,1.2-.43,2.35-1.01,3.45-1.76,1.1-.75,2.01-1.63,2.74-2.66.73-1.02,1.18-2.09,1.35-3.2Z"/>
      <path class="cls-2" d="M896.6,417.51c-2.41,0-4.64-.46-6.71-1.38-2.06-.92-3.85-2.19-5.35-3.79s-2.68-3.46-3.51-5.56c-.84-2.1-1.26-4.35-1.26-6.75,0-3.12.72-5.97,2.16-8.58,1.44-2.6,3.43-4.68,5.97-6.24,2.54-1.56,5.42-2.34,8.64-2.34s6.2.79,8.68,2.37c2.47,1.58,4.42,3.66,5.84,6.25s2.13,5.41,2.13,8.49v.99c0,.32-.02.57-.06.74h-28.77c.21,2.4.89,4.52,2.03,6.39,1.14,1.86,2.62,3.34,4.45,4.43,1.83,1.09,3.82,1.64,5.97,1.64s4.27-.56,6.22-1.68c1.96-1.12,3.32-2.58,4.1-4.39l3.81,1.03c-.69,1.59-1.74,3.03-3.16,4.32s-3.09,2.29-5,3c-1.91.71-3.97,1.06-6.16,1.06ZM884.21,398.55h24.83c-.17-2.42-.83-4.55-1.97-6.38-1.14-1.83-2.62-3.27-4.45-4.31-1.83-1.04-3.84-1.56-6.03-1.56s-4.19.52-6,1.56-3.28,2.49-4.42,4.34c-1.14,1.85-1.8,3.97-1.97,6.35Z"/>
      <path class="cls-2" d="M930.97,417.51c-2.75,0-5.31-.45-7.68-1.35-2.37-.9-4.41-2.28-6.13-4.13l1.81-3.1c1.89,1.76,3.79,3.04,5.71,3.84,1.91.8,3.94,1.19,6.1,1.19,2.62,0,4.75-.52,6.38-1.57,1.63-1.04,2.45-2.55,2.45-4.51,0-1.33-.4-2.34-1.19-3.05-.8-.71-1.93-1.28-3.42-1.73-1.48-.45-3.26-.93-5.32-1.44-2.32-.64-4.27-1.32-5.84-2.02-1.57-.71-2.75-1.6-3.55-2.69-.8-1.09-1.19-2.51-1.19-4.27,0-2.18.55-3.99,1.64-5.42,1.1-1.43,2.6-2.52,4.52-3.27,1.91-.75,4.05-1.12,6.42-1.12,2.58,0,4.86.41,6.84,1.23,1.98.82,3.59,1.96,4.84,3.42l-2.13,2.97c-1.2-1.38-2.63-2.4-4.29-3.06-1.66-.67-3.49-1-5.51-1-1.38,0-2.69.18-3.93.54-1.25.36-2.27.96-3.06,1.79-.8.83-1.19,1.98-1.19,3.43,0,1.2.3,2.13.9,2.79.6.66,1.5,1.22,2.71,1.67,1.2.45,2.69.93,4.45,1.44,2.54.68,4.75,1.38,6.64,2.08,1.89.71,3.35,1.61,4.39,2.72s1.55,2.67,1.55,4.68c0,3.12-1.18,5.56-3.55,7.31-2.37,1.75-5.48,2.63-9.35,2.63Z"/>
      <path class="cls-2" d="M951.1,376.23v-6.45h4.39v6.45h-4.39ZM951.1,416.87v-33.6h4.39v33.6h-4.39Z"/>
      <path class="cls-2" d="M978.64,417.51c-2.28,0-4.39-.47-6.32-1.42-1.94-.95-3.6-2.23-5-3.84-1.4-1.61-2.48-3.45-3.26-5.51-.77-2.06-1.16-4.19-1.16-6.39,0-2.36.38-4.59,1.13-6.68.75-2.09,1.83-3.94,3.22-5.58,1.4-1.63,3.04-2.91,4.93-3.84,1.89-.92,4-1.39,6.32-1.39,2.88,0,5.39.72,7.51,2.16,2.13,1.44,3.92,3.24,5.39,5.39v-7.03h3.93v33.64c0,3.09-.74,5.69-2.23,7.82-1.48,2.12-3.48,3.72-6,4.79-2.52,1.07-5.26,1.61-8.22,1.61-3.83,0-6.92-.69-9.29-2.06-2.37-1.38-4.3-3.22-5.8-5.55l2.71-2.13c1.33,2.11,3.11,3.68,5.32,4.71,2.21,1.03,4.57,1.55,7.06,1.55,2.19,0,4.2-.39,6.03-1.17,1.83-.78,3.29-1.95,4.39-3.51,1.1-1.56,1.65-3.53,1.65-5.89v-6.64c-1.29,2.11-3.05,3.8-5.29,5.06-2.24,1.27-4.58,1.9-7.03,1.9ZM979.86,413.84c1.33,0,2.61-.24,3.84-.71,1.23-.47,2.35-1.11,3.39-1.9,1.03-.8,1.89-1.69,2.58-2.68.69-.99,1.12-2,1.29-3.03v-10.38c-.65-1.63-1.57-3.08-2.77-4.35-1.21-1.27-2.57-2.26-4.1-2.97-1.53-.71-3.11-1.06-4.74-1.06-1.89,0-3.58.4-5.06,1.19-1.48.8-2.73,1.85-3.74,3.16-1.01,1.31-1.8,2.78-2.35,4.42-.56,1.63-.84,3.27-.84,4.9,0,1.81.32,3.52.97,5.13.64,1.61,1.54,3.05,2.68,4.32,1.14,1.27,2.47,2.25,4,2.93,1.53.69,3.15,1.03,4.87,1.03Z"/>
      <path class="cls-2" d="M1033.27,416.87h-4.39v-18.65c0-3.93-.58-6.8-1.74-8.62-1.16-1.82-2.99-2.72-5.48-2.72-1.72,0-3.42.42-5.1,1.25-1.68.83-3.15,1.96-4.42,3.39-1.27,1.43-2.18,3.06-2.74,4.9v20.46h-4.39v-33.48h4v7.63c.9-1.62,2.08-3.05,3.55-4.27,1.46-1.22,3.12-2.17,4.97-2.85,1.85-.68,3.76-1.03,5.74-1.03,1.85,0,3.42.34,4.71,1.03,1.29.68,2.32,1.66,3.1,2.92.77,1.26,1.33,2.78,1.68,4.55.34,1.77.52,3.75.52,5.93v19.56Z"/>
      <path class="cls-2" d="M1057.13,417.51c-2.41,0-4.64-.46-6.71-1.38-2.06-.92-3.85-2.19-5.35-3.79s-2.68-3.46-3.51-5.56c-.84-2.1-1.26-4.35-1.26-6.75,0-3.12.72-5.97,2.16-8.58,1.44-2.6,3.43-4.68,5.97-6.24,2.54-1.56,5.42-2.34,8.64-2.34s6.2.79,8.68,2.37c2.47,1.58,4.42,3.66,5.84,6.25s2.13,5.41,2.13,8.49v.99c0,.32-.02.57-.06.74h-28.77c.21,2.4.89,4.52,2.03,6.39,1.14,1.86,2.62,3.34,4.45,4.43,1.83,1.09,3.82,1.64,5.97,1.64s4.27-.56,6.22-1.68c1.96-1.12,3.32-2.58,4.1-4.39l3.81,1.03c-.69,1.59-1.74,3.03-3.16,4.32s-3.09,2.29-5,3c-1.91.71-3.97,1.06-6.16,1.06ZM1044.75,398.55h24.83c-.17-2.42-.83-4.55-1.97-6.38-1.14-1.83-2.62-3.27-4.45-4.31-1.83-1.04-3.84-1.56-6.03-1.56s-4.19.52-6,1.56-3.28,2.49-4.42,4.34c-1.14,1.85-1.8,3.97-1.97,6.35Z"/>
      <path class="cls-2" d="M1097.25,387.14c-2.92.09-5.49.9-7.71,2.45-2.21,1.55-3.77,3.68-4.68,6.39v20.9h-4.39v-33.48h4.13v7.93c1.16-2.36,2.7-4.28,4.61-5.74,1.91-1.46,3.94-2.28,6.1-2.45.43-.04.81-.06,1.13-.06s.59.02.81.06v4Z"/>
    </g>
  </g>
</svg>