<?xml version="1.0" encoding="UTF-8"?>
<svg id="Layer_2" xmlns="http://www.w3.org/2000/svg" viewBox="0 0 454.33 811.66">
  <defs>
    <style>
      .cls-1 {
        fill: #606060;
      }

      .cls-2 {
        fill: none;
      }

      .cls-3 {
        fill: #ffcea8;
      }
    </style>
  </defs>
  <g id="Layer_3">
    <rect class="cls-2" y="0" width="454.33" height="811.66"/>
    <g id="Hugh">
      <path class="cls-3" d="M48.89,473.45s.08.12.11.21c.02.07.04.13.04.17,0,.25-.21.38-.63.38-.23.02-.93,0-2.09-.09-1.16-.08-1.96-.12-2.41-.12-.75,0-1.88.06-3.38.18-.56.05-.96.06-1.2.04-.4,0-.6-.14-.6-.42,0-.12.04-.21.11-.28.07-.09.57-.5,1.51-1.23.73-.56,1.09-1.07,1.09-1.51v-30.66c-1.31.56-2.82.97-4.52,1.23-1.7.26-3.38.39-5.05.39-1.88,0-4.06-.27-6.54-.81-2.48-.54-4.67-1.23-6.54-2.08v31.96c0,.45.36.94,1.07,1.48.95.71,1.45,1.11,1.5,1.17.05.05.08.12.11.21.02.07.04.13.04.17,0,.25-.21.38-.64.38-.23.02-.93,0-2.1-.09-1.17-.08-1.97-.12-2.42-.12-.75,0-1.88.06-3.39.18-.56.05-.96.06-1.2.04-.4,0-.6-.14-.6-.42,0-.12.04-.21.11-.28.07-.09.57-.5,1.51-1.23.73-.56,1.09-1.07,1.09-1.51v-32.21c-.33-.05-.61-.07-.84-.07-1.55,0-2.95.36-4.22,1.09-1.5.87-2.25,2-2.25,3.41,0,.68.15,1.23.46,1.65.19.26.48.5.88.74s.94.35,1.62.35c.3,0,.52-.02.63-.07.28-.07.42.01.42.25,0,.14-.09.29-.28.46-.4.35-.83.63-1.3.84-.7.33-1.42.49-2.14.49-1.17,0-2.17-.32-2.99-.95-1.01-.77-1.51-1.86-1.51-3.27,0-1.57.42-2.92,1.27-4.04.73-.94,1.78-1.77,3.17-2.5.73-.4,1.62-.71,2.67-.95,1.31-.3,2.79-.46,4.43-.46v-7.1c0-.44-.35-.95-1.05-1.51-.52-.4-1.03-.81-1.55-1.23-.07-.09-.09-.23-.05-.42s.22-.28.55-.28c.23-.02.94,0,2.12.09s2,.12,2.47.12c.94,0,1.9-.04,2.88-.11.98-.07,1.52-.11,1.64-.11.42,0,.64.13.64.39,0,.14-.05.27-.14.39-.05.07-.53.46-1.46,1.16-.74.56-1.1,1.07-1.1,1.51v7.53c1.85.87,4.1,1.65,6.75,2.34,2.65.69,5.02,1.04,7.1,1.04,1.66,0,2.95-.08,3.87-.25,1.43-.26,3.07-.81,4.92-1.65v-9c0-.44-.35-.95-1.05-1.51-.52-.4-1.03-.81-1.55-1.23-.07-.09-.09-.23-.05-.42s.22-.28.54-.28c.23-.02.94,0,2.11.09s1.99.12,2.46.12c.94,0,1.89-.04,2.87-.11s1.52-.11,1.64-.11c.42,0,.63.13.63.39,0,.14-.05.27-.14.39-.05.07-.53.46-1.44,1.16-.73.56-1.09,1.07-1.09,1.51v42.37c0,.45.35.94,1.06,1.48.94.71,1.43,1.11,1.48,1.17Z"/>
      <path class="cls-3" d="M96.82,472.1c0,.67-.39,1.36-1.16,2.08-.89.82-1.89,1.22-2.99,1.22-1.64,0-3-.78-4.08-2.34-.98-1.44-1.48-3.1-1.48-4.97-1.92,2.46-4.18,4.31-6.79,5.56-2.46,1.17-5.15,1.76-8.05,1.76-5.34,0-9.51-2.1-12.48-6.29-2.74-3.84-4.11-8.83-4.11-14.94,0-3.38.98-6.93,2.95-10.65,1.57-2.98,3.77-6.06,6.61-9.25,2.11-2.37,4.34-4.55,6.68-6.54-.56.28-1.17.49-1.81.62-.64.13-1.33.19-2.06.19-.54,0-1.05-.04-1.55-.11-2.04-.51-4.08-1.03-6.12-1.55-.52,0-.96.16-1.34.47s-.56.72-.56,1.21c-.02.35.06.65.25.9s.43.39.74.44c.42,0,.74-.05.95-.14.21-.14.36-.23.46-.28.09-.09.19-.13.28-.11.14.02.21.18.21.46,0,.61-.19,1.2-.56,1.76-.52.75-1.2,1.12-2.04,1.12-.7,0-1.27-.28-1.71-.83s-.65-1.22-.65-2.02c0-.28.06-.62.18-1.02.33-1.12,1.09-2.16,2.29-3.09,1.31-1.03,2.66-1.55,4.04-1.55.91,0,1.89.15,2.92.46,2.3.68,3.88,1.02,4.75,1.02,1.01,0,1.92-.14,2.74-.42.38-.12.87-.35,1.48-.7.28-.12.47-.18.56-.18.19,0,.45.2.77.6.35.35.53.63.53.84s-.11.42-.32.63c-1.27.94-2.5,1.95-3.69,3.04-1.2,1.09-2.36,2.33-3.48,3.71-1.76,2.13-3.2,4.16-4.33,6.08-1.34,2.27-2.33,4.56-2.99,6.86-.75,2.62-1.12,5.39-1.12,8.3,0,4.62,1.01,8.47,3.02,11.57,2.37,3.63,5.74,5.45,10.13,5.45,2.84,0,5.46-.66,7.88-1.97,1.97-1.08,3.73-2.55,5.27-4.43v-36.64c0-.44-.35-.95-1.06-1.51-.52-.4-1.03-.81-1.55-1.23-.07-.09-.09-.23-.05-.42s.22-.28.54-.28c.23-.02.94,0,2.11.09,1.17.08,1.99.12,2.46.12.94,0,1.89-.04,2.87-.11.97-.07,1.52-.11,1.63-.11.42,0,.63.13.63.39,0,.14-.05.27-.14.39-.05.07-.53.46-1.44,1.16-.73.56-1.09,1.07-1.09,1.51v37.91c0,1.73.16,3.11.49,4.11.44,1.34,1.15,2,2.11,2,.42,0,.76-.05,1-.16s.52-.31.83-.62c.07-.09.15-.14.25-.14.07,0,.13.06.18.18.05.14.05.27,0,.39Z"/>
      <path class="cls-3" d="M143.69,424.42c0,1.31-.59,2.39-1.76,3.23s-2.55,1.27-4.15,1.27c-1.74,0-3.56-.32-5.49-.95-4.2-1.38-7.08-2.07-8.65-2.07-5.2,0-9.52,2.21-12.94,6.64-3.23,4.17-4.85,9.12-4.85,14.86,0,6.93,2.02,12.9,6.05,17.88,4.17,5.15,9.31,7.73,15.4,7.73.63,0,1.42-.05,2.37-.14.95-.09,2.1-.34,3.46-.74,1.36-.4,2.34-.84,2.95-1.33-.4-.37-.74-.77-1.02-1.19-.19-.3-.43-.75-.72-1.35s-.47-1.34-.54-2.23-.11-2.04-.11-3.44v-15.73c-.94.42-1.76.71-2.46.88s-1.55.25-2.53.25-2.2-.48-3.8-1.44c-1.59-.96-2.86-1.44-3.8-1.44-.73,0-1.39.17-1.99.51s-.9.85-.9,1.53c0,1.45.63,2.11,1.9,1.97.4-.07.71-.16.93-.26s.38-.23.48-.37c.07-.12.15-.18.25-.18.12,0,.18.08.18.25.12.3.18.65.18,1.02,0,.19-.02.43-.07.72-.05.29-.33.65-.84,1.07s-1.09.63-1.72.63c-1.03,0-1.82-.4-2.37-1.2-.55-.8-.83-1.72-.83-2.78,0-.23.01-.41.04-.53.16-1.59.86-2.88,2.07-3.87s2.68-1.48,4.4-1.48c1.59,0,3.14.28,4.64.84,3.26,1.22,5.81,1.83,7.67,1.83.87,0,1.78-.15,2.74-.46,1.03-.37,2.06-.76,3.09-1.16.33,0,.42.14.28.42-.35.42-.7.83-1.05,1.23-1.03,1.34-1.55,2.73-1.55,4.18v14.91c0,1.88.37,3.47,1.12,4.78.26.45.82,1.15,1.69,2.11.12.14.18.27.18.39s-.08.25-.25.39c-.96.73-2.92,1.49-5.87,2.29-3.52.96-6.72,1.44-9.6,1.44-7.08,0-13.07-2.66-17.97-7.98-4.81-5.23-7.21-11.47-7.21-18.74s2.09-12.72,6.26-17.41c4.36-4.9,9.96-7.35,16.81-7.35,2.3,0,4.85.46,7.67,1.37,2.81.91,4.5,1.37,5.06,1.37,2.02,0,3.02-.73,3.02-2.18,0-.61-.18-1.07-.54-1.37-.36-.3-.79-.46-1.28-.46-.19-.05-.38-.04-.56.02-.19.06-.33.1-.42.12-.14.07-.26.09-.35.07-.09-.02-.14-.09-.14-.21,0-.14.05-.3.14-.49.3-.68.77-1.19,1.41-1.53.63-.34,1.31-.51,2.04-.51,1.27,0,2.23.42,2.88,1.25.66.83.98,1.87.98,3.11Z"/>
      <path class="cls-3" d="M192.04,473.45s.08.12.11.21c.02.07.04.13.04.17,0,.25-.21.38-.63.38-.23.02-.93,0-2.09-.09-1.16-.08-1.96-.12-2.41-.12-.75,0-1.88.06-3.38.18-.56.05-.96.06-1.2.04-.4,0-.6-.14-.6-.42,0-.12.04-.21.11-.28.07-.09.57-.5,1.51-1.23.73-.56,1.09-1.07,1.09-1.51v-30.66c-1.31.56-2.82.97-4.52,1.23-1.7.26-3.38.39-5.05.39-1.88,0-4.06-.27-6.54-.81-2.48-.54-4.67-1.23-6.54-2.08v31.96c0,.45.36.94,1.07,1.48.95.71,1.45,1.11,1.5,1.17.05.05.08.12.11.21.02.07.04.13.04.17,0,.25-.21.38-.64.38-.23.02-.93,0-2.1-.09-1.17-.08-1.97-.12-2.42-.12-.75,0-1.88.06-3.39.18-.56.05-.96.06-1.2.04-.4,0-.6-.14-.6-.42,0-.12.04-.21.11-.28.07-.09.57-.5,1.51-1.23.73-.56,1.09-1.07,1.09-1.51v-32.21c-.33-.05-.61-.07-.84-.07-1.55,0-2.95.36-4.22,1.09-1.5.87-2.25,2-2.25,3.41,0,.68.15,1.23.46,1.65.19.26.48.5.88.74s.94.35,1.62.35c.3,0,.52-.02.63-.07.28-.07.42.01.42.25,0,.14-.09.29-.28.46-.4.35-.83.63-1.3.84-.7.33-1.42.49-2.14.49-1.17,0-2.17-.32-2.99-.95-1.01-.77-1.51-1.86-1.51-3.27,0-1.57.42-2.92,1.27-4.04.73-.94,1.78-1.77,3.17-2.5.73-.4,1.62-.71,2.67-.95,1.31-.3,2.79-.46,4.43-.46v-7.1c0-.44-.35-.95-1.05-1.51-.52-.4-1.03-.81-1.55-1.23-.07-.09-.09-.23-.05-.42s.22-.28.55-.28c.23-.02.94,0,2.12.09s2,.12,2.47.12c.94,0,1.9-.04,2.88-.11.98-.07,1.52-.11,1.64-.11.42,0,.64.13.64.39,0,.14-.05.27-.14.39-.05.07-.53.46-1.46,1.16-.74.56-1.1,1.07-1.1,1.51v7.53c1.85.87,4.1,1.65,6.75,2.34,2.65.69,5.02,1.04,7.1,1.04,1.66,0,2.95-.08,3.87-.25,1.43-.26,3.07-.81,4.92-1.65v-9c0-.44-.35-.95-1.05-1.51-.52-.4-1.03-.81-1.55-1.23-.07-.09-.09-.23-.05-.42s.22-.28.54-.28c.23-.02.94,0,2.11.09s1.99.12,2.46.12c.94,0,1.89-.04,2.87-.11s1.52-.11,1.64-.11c.42,0,.63.13.63.39,0,.14-.05.27-.14.39-.05.07-.53.46-1.44,1.16-.73.56-1.09,1.07-1.09,1.51v42.37c0,.45.35.94,1.06,1.48.94.71,1.43,1.11,1.48,1.17Z"/>
    </g>
    <g id="Rocca">
      <path class="cls-3" d="M208.13,474.21v-51.96h23.05c2.34,0,4.53.49,6.55,1.46,2.02.98,3.78,2.29,5.27,3.95,1.49,1.66,2.63,3.51,3.44,5.56.8,2.05,1.21,4.15,1.21,6.29s-.38,4.29-1.13,6.29c-.76,2-1.84,3.77-3.26,5.31-1.42,1.54-3.07,2.72-4.98,3.55l11.86,19.54h-11.12l-10.68-17.42h-10.1v17.42h-10.1ZM218.23,447.94h12.66c1.27,0,2.39-.38,3.37-1.13.98-.76,1.76-1.77,2.34-3.04.59-1.27.88-2.68.88-4.24s-.34-3.05-1.02-4.32c-.68-1.27-1.54-2.27-2.56-3-1.02-.73-2.15-1.1-3.37-1.1h-12.29v16.83Z"/>
      <path class="cls-3" d="M278.68,474.58c-3.81,0-7.25-.73-10.32-2.2-3.07-1.46-5.73-3.45-7.98-5.96-2.25-2.51-3.98-5.34-5.2-8.49-1.22-3.15-1.83-6.38-1.83-9.7s.65-6.77,1.94-9.92c1.29-3.15,3.07-5.95,5.34-8.42s4.96-4.42,8.09-5.86c3.12-1.44,6.51-2.16,10.17-2.16s7.18.76,10.28,2.27c3.1,1.51,5.75,3.54,7.94,6.07,2.2,2.54,3.89,5.37,5.09,8.49,1.2,3.12,1.79,6.34,1.79,9.66s-.62,6.7-1.87,9.84c-1.24,3.15-3,5.95-5.27,8.42s-4.95,4.4-8.05,5.82c-3.1,1.42-6.48,2.12-10.14,2.12ZM263.61,448.23c0,2.24.34,4.42,1.02,6.51.68,2.1,1.67,3.96,2.96,5.6s2.88,2.93,4.76,3.88c1.88.95,4.01,1.43,6.4,1.43s4.66-.5,6.51-1.5c1.85-1,3.43-2.33,4.72-3.99,1.29-1.66,2.26-3.54,2.89-5.63.63-2.1.95-4.2.95-6.29,0-2.24-.34-4.4-1.02-6.48-.68-2.07-1.68-3.93-3-5.56s-2.9-2.93-4.76-3.88c-1.85-.95-3.98-1.43-6.37-1.43s-4.53.5-6.4,1.5c-1.88,1-3.46,2.32-4.76,3.95s-2.27,3.49-2.93,5.56c-.66,2.07-.99,4.18-.99,6.33Z"/>
      <path class="cls-3" d="M308.69,447.79c0-3.22.57-6.35,1.72-9.4,1.15-3.05,2.83-5.82,5.05-8.31,2.22-2.49,4.92-4.48,8.09-5.96,3.17-1.49,6.76-2.23,10.76-2.23,4.78,0,8.92,1.05,12.4,3.15,3.49,2.1,6.06,4.83,7.72,8.2l-7.68,5.34c-.88-1.95-2.03-3.49-3.44-4.61-1.42-1.12-2.94-1.93-4.57-2.42-1.64-.49-3.21-.73-4.72-.73-2.54,0-4.75.51-6.62,1.54-1.88,1.02-3.44,2.37-4.68,4.03-1.24,1.66-2.18,3.51-2.82,5.56-.63,2.05-.95,4.12-.95,6.22,0,2.24.37,4.43,1.1,6.55.73,2.12,1.77,4,3.11,5.64,1.34,1.63,2.95,2.93,4.83,3.88,1.88.95,3.94,1.43,6.18,1.43,1.56,0,3.17-.27,4.83-.81,1.66-.54,3.2-1.39,4.61-2.56,1.42-1.17,2.56-2.71,3.44-4.61l8.2,4.83c-1.07,2.59-2.77,4.78-5.09,6.59-2.32,1.81-4.9,3.17-7.76,4.1s-5.7,1.39-8.53,1.39c-3.71,0-7.09-.77-10.14-2.31-3.05-1.54-5.7-3.59-7.94-6.15-2.25-2.56-3.99-5.44-5.23-8.64-1.24-3.2-1.87-6.43-1.87-9.7Z"/>
      <path class="cls-3" d="M358.24,447.79c0-3.22.57-6.35,1.72-9.4,1.15-3.05,2.83-5.82,5.05-8.31,2.22-2.49,4.92-4.48,8.09-5.96,3.17-1.49,6.76-2.23,10.76-2.23,4.78,0,8.92,1.05,12.4,3.15,3.49,2.1,6.06,4.83,7.72,8.2l-7.68,5.34c-.88-1.95-2.03-3.49-3.44-4.61-1.42-1.12-2.94-1.93-4.57-2.42-1.64-.49-3.21-.73-4.72-.73-2.54,0-4.75.51-6.62,1.54-1.88,1.02-3.44,2.37-4.68,4.03-1.24,1.66-2.18,3.51-2.82,5.56-.63,2.05-.95,4.12-.95,6.22,0,2.24.37,4.43,1.1,6.55.73,2.12,1.77,4,3.11,5.64,1.34,1.63,2.95,2.93,4.83,3.88,1.88.95,3.94,1.43,6.18,1.43,1.56,0,3.17-.27,4.83-.81,1.66-.54,3.2-1.39,4.61-2.56,1.42-1.17,2.56-2.71,3.44-4.61l8.2,4.83c-1.07,2.59-2.77,4.78-5.09,6.59-2.32,1.81-4.9,3.17-7.76,4.1s-5.7,1.39-8.53,1.39c-3.71,0-7.09-.77-10.14-2.31-3.05-1.54-5.7-3.59-7.94-6.15-2.25-2.56-3.99-5.44-5.23-8.64-1.24-3.2-1.87-6.43-1.87-9.7Z"/>
      <path class="cls-3" d="M424.98,422.25h10.25l19.1,51.96h-10.39l-4.32-12.95h-19.08l-4.34,12.95h-10.39l19.17-51.96ZM437.25,454.16l-7.15-21.44-7.18,21.44h14.33Z"/>
    </g>
    <g id="Based_in_Groningen">
      <path class="cls-3" d="M88.73,766.55h280.62c11.09,0,20.07,10.1,20.07,22.55h0c0,12.46-8.99,22.55-20.07,22.55H88.73c-11.09,0-20.07-10.1-20.07-22.55h0c0-12.46,8.99-22.55,20.07-22.55Z"/>
      <g>
        <path class="cls-1" d="M100.28,799.16c-1.24,0-2.36-.3-3.38-.91-1.02-.61-1.82-1.4-2.4-2.37v2.98h-2.37v-22.21h2.68v9.62c.67-1.03,1.49-1.87,2.46-2.5.97-.63,2.11-.94,3.41-.94,1.1,0,2.08.23,2.95.68.87.45,1.62,1.07,2.24,1.84.62.77,1.1,1.65,1.43,2.63.34.98.5,2,.5,3.07s-.19,2.15-.56,3.13-.91,1.84-1.6,2.6-1.49,1.34-2.39,1.77-1.89.63-2.97.63ZM99.61,796.84c.79,0,1.52-.16,2.19-.48s1.25-.75,1.73-1.29c.49-.54.86-1.16,1.13-1.87.26-.7.39-1.42.39-2.17,0-1.02-.22-1.99-.65-2.89-.44-.9-1.04-1.63-1.82-2.18-.78-.55-1.69-.83-2.72-.83-.75,0-1.45.17-2.1.51-.65.34-1.22.79-1.72,1.34-.5.55-.91,1.16-1.23,1.82v4.55c.1.5.31.96.64,1.39s.72.79,1.19,1.1c.47.31.96.56,1.47.74s1.02.27,1.51.27Z"/>
        <path class="cls-1" d="M109.83,794.29c0-1.01.29-1.88.87-2.62.58-.74,1.38-1.31,2.39-1.71,1.01-.4,2.19-.61,3.53-.61.71,0,1.46.06,2.25.17s1.49.28,2.1.5v-1.15c0-1.2-.37-2.15-1.1-2.84-.73-.69-1.76-1.04-3.1-1.04-.87,0-1.71.16-2.51.47-.8.32-1.65.77-2.54,1.35l-.97-1.89c1.03-.71,2.07-1.24,3.1-1.6,1.03-.35,2.11-.53,3.22-.53,2.03,0,3.63.56,4.81,1.67,1.18,1.12,1.76,2.67,1.76,4.66v6.67c0,.32.07.56.2.71.13.15.35.24.65.26v2.07c-.27.04-.49.07-.69.09-.19.02-.35.03-.47.03-.63,0-1.1-.17-1.42-.52s-.49-.71-.53-1.1l-.06-1c-.69.89-1.59,1.58-2.71,2.07-1.12.49-2.22.73-3.32.73s-2-.22-2.83-.65c-.83-.43-1.48-1.02-1.95-1.75s-.7-1.56-.7-2.46ZM120.18,795.4c.24-.28.44-.57.58-.86s.21-.54.21-.74v-1.96c-.63-.24-1.29-.43-1.98-.56-.69-.13-1.37-.2-2.04-.2-1.36,0-2.46.27-3.3.8s-1.26,1.26-1.26,2.18c0,.5.14.99.41,1.46s.68.86,1.22,1.16c.54.3,1.2.45,1.99.45.83,0,1.62-.17,2.37-.5.75-.33,1.35-.75,1.79-1.25Z"/>
        <path class="cls-1" d="M133.38,799.16c-1.32,0-2.56-.22-3.71-.65-1.16-.44-2.15-1.09-2.98-1.96l1.04-1.89c.91.85,1.83,1.46,2.74,1.83.91.36,1.85.55,2.8.55,1.1,0,1.99-.2,2.68-.62.69-.41,1.04-1.01,1.04-1.82,0-.58-.18-1.02-.53-1.3-.35-.28-.86-.52-1.51-.71-.65-.19-1.42-.41-2.31-.65-1.1-.32-2.02-.67-2.77-1.03-.75-.36-1.32-.82-1.7-1.36s-.58-1.23-.58-2.05c0-1.01.26-1.86.79-2.55.53-.7,1.25-1.22,2.18-1.59.92-.36,1.97-.54,3.15-.54s2.24.18,3.2.55,1.78.9,2.46,1.61l-1.22,1.86c-.63-.65-1.32-1.13-2.07-1.45-.75-.31-1.59-.47-2.53-.47-.55,0-1.09.07-1.61.2s-.96.36-1.31.69c-.35.33-.52.8-.52,1.4,0,.5.14.9.41,1.19.28.29.68.54,1.22.74.54.2,1.19.42,1.96.66,1.2.34,2.24.68,3.12,1.03.88.34,1.57.78,2.05,1.33s.73,1.3.73,2.26c0,1.49-.57,2.65-1.71,3.49-1.13.83-2.64,1.25-4.5,1.25Z"/>
        <path class="cls-1" d="M149.81,799.16c-1.2,0-2.29-.22-3.27-.65-.98-.43-1.84-1.03-2.55-1.78-.72-.75-1.28-1.63-1.67-2.61-.4-.99-.59-2.03-.59-3.14,0-1.49.35-2.85,1.04-4.08.69-1.23,1.65-2.21,2.88-2.96s2.63-1.12,4.21-1.12,3,.38,4.18,1.13,2.11,1.74,2.77,2.96c.66,1.22.99,2.53.99,3.94,0,.2,0,.4-.02.59,0,.19-.03.34-.04.44h-13.18c.08,1.02.37,1.93.87,2.72.5.79,1.14,1.41,1.93,1.87s1.64.68,2.56.68c.97,0,1.89-.24,2.75-.73.86-.49,1.46-1.13,1.78-1.92l2.31.64c-.34.77-.86,1.46-1.54,2.07-.68.61-1.48,1.09-2.4,1.43-.92.34-1.92.52-3,.52ZM144.46,790.03h10.83c-.08-1.02-.38-1.92-.88-2.71-.51-.78-1.16-1.39-1.95-1.83s-1.66-.66-2.62-.66-1.79.22-2.59.66-1.44,1.05-1.93,1.83c-.5.78-.79,1.68-.87,2.71Z"/>
        <path class="cls-1" d="M159.73,791c0-1.49.31-2.85.93-4.09s1.47-2.23,2.56-2.97,2.33-1.12,3.73-1.12c1.28,0,2.42.33,3.44,1,1.01.67,1.8,1.48,2.37,2.43v-9.62h2.68v19.17c0,.33.07.56.2.71.13.15.35.24.65.26v2.07c-.51.08-.9.12-1.19.12-.53,0-.99-.18-1.38-.55-.39-.37-.59-.77-.59-1.22v-1.34c-.63,1.01-1.47,1.82-2.53,2.4s-2.15.88-3.29.88-2.11-.22-3.03-.65c-.92-.43-1.72-1.03-2.4-1.8-.68-.76-1.21-1.64-1.58-2.61s-.56-2.01-.56-3.1ZM172.76,793.32v-4.52c-.24-.68-.64-1.3-1.19-1.85-.55-.55-1.16-.99-1.84-1.33s-1.35-.5-2.02-.5c-.79,0-1.51.17-2.14.5s-1.19.77-1.64,1.33c-.46.55-.8,1.18-1.05,1.88-.24.7-.37,1.44-.37,2.2s.14,1.53.41,2.23c.27.7.66,1.33,1.16,1.87.5.54,1.08.96,1.73,1.26.66.3,1.38.45,2.15.45.49,0,.99-.09,1.51-.27s1.01-.43,1.48-.75c.46-.32.86-.7,1.19-1.13.32-.43.54-.89.64-1.37Z"/>
        <path class="cls-1" d="M187.61,779.99v-3.35h2.68v3.35h-2.68ZM187.61,798.85v-15.88h2.68v15.88h-2.68Z"/>
        <path class="cls-1" d="M208.39,798.85h-2.68v-8.81c0-1.67-.26-2.89-.78-3.66-.52-.77-1.3-1.16-2.36-1.16-.73,0-1.46.18-2.18.54-.72.36-1.36.85-1.92,1.46-.56.61-.96,1.32-1.2,2.12v9.51h-2.68v-15.79h2.44v3.41c.43-.74.97-1.39,1.64-1.93s1.43-.97,2.28-1.27c.85-.3,1.74-.45,2.68-.45s1.68.17,2.3.5c.62.33,1.11.8,1.46,1.39.35.59.61,1.29.76,2.1.15.81.23,1.68.23,2.63v9.42Z"/>
        <path class="cls-1" d="M229.35,799c-1.42,0-2.74-.31-3.97-.93-1.23-.62-2.3-1.45-3.21-2.5-.91-1.04-1.62-2.22-2.13-3.53-.51-1.31-.76-2.66-.76-4.06s.25-2.84.76-4.15c.51-1.31,1.21-2.47,2.12-3.48.9-1.01,1.97-1.81,3.2-2.39,1.23-.58,2.56-.87,4-.87,2.09,0,3.81.44,5.17,1.31s2.38,2.01,3.07,3.41l-2.1,1.46c-.63-1.26-1.49-2.19-2.59-2.8s-2.3-.91-3.62-.91c-1.1,0-2.09.23-2.98.7s-1.66,1.1-2.3,1.9c-.64.8-1.12,1.71-1.46,2.72-.33,1.01-.5,2.07-.5,3.16,0,1.16.19,2.25.56,3.27s.91,1.93,1.6,2.71c.69.78,1.49,1.4,2.4,1.84.91.45,1.9.67,2.95.67,1.24,0,2.41-.31,3.53-.94,1.12-.63,2.17-1.59,3.16-2.89v2.83c-1.95,2.31-4.25,3.47-6.91,3.47ZM235.93,790.15h-4.65v-2.07h6.97v10.77h-2.31v-8.7Z"/>
        <path class="cls-1" d="M250.38,785.31c-1.34.02-2.52.36-3.54,1.02-1.02.66-1.75,1.57-2.18,2.72v9.8h-2.68v-15.79h2.5v3.59c.55-1.1,1.27-1.98,2.18-2.66s1.85-1.06,2.85-1.14h.52c.14,0,.26.01.37.03v2.43Z"/>
        <path class="cls-1" d="M259.6,799.16c-1.2,0-2.28-.22-3.26-.65-.97-.43-1.82-1.03-2.53-1.78-.71-.75-1.26-1.63-1.64-2.61-.39-.99-.58-2.02-.58-3.11s.19-2.15.58-3.14c.38-.99.93-1.86,1.64-2.61.71-.75,1.56-1.35,2.54-1.78.98-.43,2.06-.65,3.24-.65s2.28.22,3.26.65c.97.43,1.82,1.03,2.54,1.78s1.27,1.63,1.66,2.61c.38.99.58,2.03.58,3.14s-.19,2.12-.58,3.11c-.38.99-.93,1.86-1.64,2.61-.71.75-1.56,1.35-2.54,1.78-.98.43-2.07.65-3.27.65ZM254.34,791.03c0,1.08.24,2.07.71,2.95s1.11,1.58,1.9,2.09c.79.51,1.67.77,2.65.77s1.86-.26,2.66-.78c.8-.52,1.44-1.23,1.92-2.12s.71-1.88.71-2.97-.24-2.07-.71-2.95c-.48-.88-1.12-1.59-1.92-2.11s-1.69-.78-2.66-.78-1.86.27-2.65.8c-.79.53-1.43,1.24-1.9,2.12-.48.88-.71,1.88-.71,2.98Z"/>
        <path class="cls-1" d="M284.67,798.85h-2.68v-8.81c0-1.67-.26-2.89-.78-3.66-.52-.77-1.3-1.16-2.36-1.16-.73,0-1.46.18-2.18.54-.72.36-1.36.85-1.92,1.46-.56.61-.96,1.32-1.2,2.12v9.51h-2.68v-15.79h2.43v3.41c.43-.74.97-1.39,1.64-1.93.67-.54,1.43-.97,2.28-1.27.85-.3,1.74-.45,2.68-.45s1.68.17,2.3.5c.62.33,1.11.8,1.46,1.39s.61,1.29.76,2.1c.15.81.23,1.68.23,2.63v9.42Z"/>
        <path class="cls-1" d="M288.84,779.99v-3.35h2.68v3.35h-2.68ZM288.84,798.85v-15.88h2.68v15.88h-2.68Z"/>
        <path class="cls-1" d="M309.62,798.85h-2.68v-8.81c0-1.67-.26-2.89-.78-3.66-.52-.77-1.3-1.16-2.36-1.16-.73,0-1.46.18-2.18.54-.72.36-1.36.85-1.92,1.46-.56.61-.96,1.32-1.2,2.12v9.51h-2.68v-15.79h2.44v3.41c.43-.74.97-1.39,1.64-1.93s1.43-.97,2.28-1.27c.85-.3,1.74-.45,2.68-.45s1.68.17,2.3.5c.62.33,1.11.8,1.46,1.39.35.59.61,1.29.76,2.1.15.81.23,1.68.23,2.63v9.42Z"/>
        <path class="cls-1" d="M320.12,799.16c-1.08,0-2.06-.22-2.97-.65-.9-.44-1.68-1.04-2.33-1.8s-1.15-1.63-1.51-2.6-.53-1.99-.53-3.04c0-1.12.18-2.17.53-3.16s.86-1.87,1.52-2.63c.66-.76,1.44-1.36,2.33-1.79s1.89-.65,2.98-.65c1.32,0,2.47.32,3.45.96.98.64,1.81,1.46,2.48,2.45v-3.17h2.37v15.64c0,1.49-.36,2.76-1.08,3.79-.72,1.03-1.7,1.81-2.92,2.35s-2.59.8-4.09.8c-1.79,0-3.25-.32-4.38-.94-1.14-.63-2.08-1.48-2.83-2.56l1.55-1.37c.63.93,1.45,1.63,2.45,2.1s2.07.7,3.21.7c.97,0,1.87-.17,2.69-.52.82-.35,1.48-.87,1.98-1.58.5-.71.75-1.6.75-2.67v-2.8c-.59.97-1.39,1.75-2.42,2.31-1.02.57-2.1.85-3.24.85ZM320.95,796.97c.57,0,1.12-.1,1.64-.3.53-.2,1.01-.47,1.46-.81.45-.33.82-.71,1.12-1.14.3-.43.51-.86.61-1.31v-4.56c-.29-.73-.69-1.37-1.22-1.93-.53-.56-1.13-.99-1.8-1.31-.67-.31-1.36-.47-2.07-.47-.81,0-1.54.17-2.18.52s-1.18.81-1.63,1.38c-.45.58-.79,1.22-1.04,1.93-.24.71-.37,1.43-.37,2.16,0,.79.14,1.54.43,2.24.28.7.67,1.32,1.16,1.87s1.06.97,1.73,1.28c.67.3,1.38.46,2.13.46Z"/>
        <path class="cls-1" d="M339.81,799.16c-1.2,0-2.29-.22-3.27-.65-.98-.43-1.84-1.03-2.56-1.78-.72-.75-1.28-1.63-1.67-2.61-.39-.99-.59-2.03-.59-3.14,0-1.49.34-2.85,1.03-4.08.69-1.23,1.65-2.21,2.88-2.96,1.23-.75,2.63-1.12,4.21-1.12s3,.38,4.19,1.13c1.19.76,2.11,1.74,2.77,2.96.66,1.22.99,2.53.99,3.94,0,.2,0,.4-.02.59s-.03.34-.04.44h-13.18c.08,1.02.37,1.93.87,2.72.5.79,1.14,1.41,1.93,1.87s1.64.68,2.56.68c.97,0,1.89-.24,2.75-.73.86-.49,1.46-1.13,1.78-1.92l2.31.64c-.35.77-.86,1.46-1.54,2.07-.68.61-1.48,1.09-2.4,1.43-.92.34-1.92.52-3,.52ZM334.45,790.03h10.83c-.08-1.02-.38-1.92-.88-2.71-.51-.78-1.16-1.39-1.95-1.83s-1.66-.66-2.62-.66-1.79.22-2.59.66-1.44,1.05-1.93,1.83c-.5.78-.79,1.68-.87,2.71Z"/>
        <path class="cls-1" d="M364.55,798.85h-2.68v-8.81c0-1.67-.26-2.89-.78-3.66-.52-.77-1.3-1.16-2.36-1.16-.73,0-1.46.18-2.18.54-.72.36-1.36.85-1.92,1.46-.56.61-.96,1.32-1.2,2.12v9.51h-2.68v-15.79h2.44v3.41c.43-.74.97-1.39,1.64-1.93s1.43-.97,2.28-1.27c.85-.3,1.74-.45,2.68-.45s1.68.17,2.3.5c.62.33,1.11.8,1.46,1.39.35.59.61,1.29.76,2.1.15.81.23,1.68.23,2.63v9.42Z"/>
        <path class="cls-1" d="M368.5,798.85v-3.41h2.25v3.41h-2.25Z"/>
      </g>
    </g>
    <g id="A_designer">
      <path class="cls-3" d="M62.73,684.09h4.55l22.74,54.73h-5.7l-6.84-17.11h-25.02l-6.84,17.11h-5.78l22.89-54.73ZM75.78,717.46l-10.81-27.06-10.81,27.06h21.63Z"/>
      <path class="cls-3" d="M111.37,718.97c0-3.78.78-7.24,2.35-10.39,1.57-3.14,3.74-5.66,6.51-7.55s5.94-2.84,9.48-2.84c3.34,0,6.33.89,8.98,2.66,2.65,1.77,4.71,3.92,6.21,6.44v-24.75h5.24v49.95c0,.72.15,1.25.46,1.58.31.33.77.53,1.39.58v4.16c-1.03.15-1.83.21-2.39.15-1.08-.05-2.03-.49-2.85-1.31-.82-.82-1.23-1.72-1.23-2.7v-3.93c-1.59,2.62-3.75,4.7-6.47,6.24-2.72,1.54-5.55,2.31-8.48,2.31-2.78,0-5.33-.56-7.67-1.69-2.34-1.12-4.37-2.66-6.09-4.6-1.72-1.94-3.06-4.15-4.01-6.63-.95-2.48-1.43-5.05-1.43-7.7ZM144.9,725.09v-12.32c-.67-1.84-1.75-3.51-3.24-5.01-1.49-1.5-3.17-2.7-5.05-3.6-1.88-.89-3.74-1.34-5.59-1.34-2.16,0-4.11.45-5.86,1.34-1.75.89-3.25,2.11-4.51,3.64-1.26,1.53-2.22,3.26-2.89,5.2s-1,3.93-1,5.97c0,2.14.37,4.18,1.12,6.12.74,1.94,1.81,3.66,3.2,5.17,1.39,1.51,2.98,2.67,4.78,3.48,1.8.82,3.75,1.22,5.86,1.22,1.34,0,2.72-.25,4.16-.76,1.44-.51,2.81-1.21,4.12-2.11,1.31-.89,2.4-1.95,3.28-3.18.87-1.22,1.41-2.5,1.62-3.83Z"/>
      <path class="cls-3" d="M179.36,739.59c-2.88,0-5.55-.55-8.02-1.65-2.47-1.1-4.6-2.61-6.4-4.53-1.8-1.92-3.2-4.13-4.2-6.64s-1.5-5.2-1.5-8.06c0-3.72.86-7.14,2.58-10.25,1.72-3.11,4.1-5.6,7.13-7.46,3.03-1.86,6.47-2.79,10.33-2.79s7.41.94,10.37,2.83c2.96,1.89,5.28,4.38,6.98,7.47,1.7,3.09,2.54,6.47,2.54,10.14v1.19c0,.38-.03.68-.08.88h-34.38c.26,2.86,1.07,5.41,2.43,7.63,1.36,2.22,3.13,3.99,5.32,5.29,2.18,1.3,4.56,1.96,7.13,1.96s5.1-.67,7.44-2c2.34-1.34,3.97-3.08,4.9-5.24l4.55,1.23c-.82,1.9-2.08,3.62-3.78,5.16-1.7,1.54-3.69,2.74-5.97,3.58-2.29.85-4.74,1.27-7.36,1.27ZM164.56,716.92h29.68c-.21-2.9-.99-5.44-2.35-7.63-1.36-2.19-3.13-3.9-5.32-5.15-2.19-1.25-4.59-1.87-7.21-1.87s-5.01.62-7.17,1.87c-2.16,1.25-3.92,2.98-5.28,5.19-1.36,2.21-2.15,4.74-2.35,7.59Z"/>
      <path class="cls-3" d="M220.45,739.59c-3.29,0-6.35-.54-9.17-1.62-2.83-1.08-5.27-2.72-7.32-4.93l2.16-3.7c2.26,2.11,4.54,3.64,6.82,4.59,2.29.95,4.71,1.43,7.29,1.43,3.13,0,5.68-.62,7.63-1.87s2.93-3.04,2.93-5.39c0-1.58-.48-2.8-1.43-3.64-.95-.84-2.31-1.53-4.09-2.07-1.77-.54-3.89-1.11-6.36-1.72-2.78-.77-5.1-1.57-6.98-2.42-1.88-.84-3.29-1.92-4.24-3.22-.95-1.3-1.43-3-1.43-5.1,0-2.61.66-4.76,1.97-6.48,1.31-1.71,3.11-3.01,5.4-3.91,2.29-.89,4.84-1.34,7.67-1.34,3.08,0,5.81.49,8.17,1.46,2.36.98,4.29,2.34,5.78,4.09l-2.54,3.55c-1.44-1.64-3.15-2.86-5.13-3.66-1.98-.8-4.18-1.19-6.59-1.19-1.65,0-3.21.22-4.7.65-1.49.43-2.71,1.15-3.66,2.15-.95,1-1.43,2.36-1.43,4.1,0,1.43.36,2.54,1.08,3.33.72.79,1.8,1.46,3.24,1.99,1.44.54,3.21,1.11,5.32,1.72,3.03.82,5.68,1.65,7.94,2.49,2.26.84,4.01,1.93,5.24,3.26s1.85,3.19,1.85,5.59c0,3.73-1.41,6.64-4.24,8.73-2.83,2.09-6.55,3.14-11.18,3.14Z"/>
      <path class="cls-3" d="M244.5,690.25v-7.71h5.24v7.71h-5.24ZM244.5,738.82v-40.16h5.24v40.16h-5.24Z"/>
      <path class="cls-3" d="M277.41,739.59c-2.72,0-5.24-.57-7.55-1.7s-4.3-2.66-5.97-4.59c-1.67-1.93-2.97-4.12-3.89-6.59-.92-2.47-1.39-5.01-1.39-7.63,0-2.83.45-5.49,1.35-7.98.9-2.49,2.18-4.71,3.85-6.67,1.67-1.95,3.63-3.48,5.9-4.59,2.26-1.1,4.78-1.66,7.55-1.66,3.44,0,6.44.86,8.98,2.58,2.54,1.72,4.69,3.87,6.44,6.44v-8.4h4.7v40.21c0,3.69-.89,6.8-2.66,9.34-1.77,2.54-4.16,4.44-7.17,5.73-3.01,1.28-6.28,1.92-9.83,1.92-4.58,0-8.28-.82-11.1-2.47-2.83-1.65-5.14-3.85-6.94-6.63l3.24-2.54c1.59,2.52,3.71,4.39,6.36,5.63,2.65,1.23,5.46,1.85,8.44,1.85,2.62,0,5.02-.47,7.21-1.4,2.18-.93,3.93-2.33,5.24-4.2,1.31-1.87,1.97-4.21,1.97-7.04v-7.94c-1.54,2.52-3.65,4.54-6.32,6.05-2.67,1.51-5.47,2.27-8.4,2.27ZM278.88,735.19c1.59,0,3.12-.28,4.59-.85,1.46-.57,2.81-1.32,4.05-2.27,1.23-.95,2.26-2.02,3.08-3.2.82-1.18,1.34-2.39,1.54-3.62v-12.41c-.77-1.95-1.88-3.69-3.31-5.2-1.44-1.51-3.07-2.7-4.9-3.55-1.82-.85-3.71-1.27-5.67-1.27-2.26,0-4.28.48-6.05,1.43-1.77.95-3.26,2.21-4.47,3.78-1.21,1.57-2.15,3.33-2.81,5.28-.67,1.95-1,3.91-1,5.86,0,2.16.39,4.2,1.16,6.13.77,1.93,1.84,3.65,3.2,5.16,1.36,1.52,2.96,2.69,4.78,3.51,1.82.82,3.76,1.23,5.82,1.23Z"/>
      <path class="cls-3" d="M342.7,738.82h-5.24v-22.29c0-4.7-.69-8.13-2.08-10.3-1.39-2.17-3.57-3.26-6.55-3.26-2.06,0-4.09.5-6.09,1.49-2,1-3.77,2.35-5.28,4.05-1.52,1.71-2.61,3.66-3.28,5.85v24.45h-5.24v-40.01h4.78v9.12c1.08-1.94,2.49-3.64,4.24-5.1,1.75-1.46,3.73-2.59,5.94-3.41,2.21-.82,4.5-1.23,6.86-1.23,2.21,0,4.09.41,5.63,1.23,1.54.82,2.77,1.98,3.7,3.49.92,1.51,1.59,3.32,2,5.44.41,2.12.62,4.48.62,7.09v23.38Z"/>
      <path class="cls-3" d="M371.22,739.59c-2.88,0-5.55-.55-8.02-1.65-2.47-1.1-4.6-2.61-6.4-4.53-1.8-1.92-3.2-4.13-4.2-6.64s-1.5-5.2-1.5-8.06c0-3.72.86-7.14,2.58-10.25,1.72-3.11,4.1-5.6,7.13-7.46,3.03-1.86,6.47-2.79,10.33-2.79s7.41.94,10.37,2.83c2.96,1.89,5.28,4.38,6.98,7.47,1.7,3.09,2.54,6.47,2.54,10.14v1.19c0,.38-.03.68-.08.88h-34.38c.26,2.86,1.07,5.41,2.43,7.63,1.36,2.22,3.13,3.99,5.32,5.29,2.18,1.3,4.56,1.96,7.13,1.96s5.1-.67,7.44-2c2.34-1.34,3.97-3.08,4.9-5.24l4.55,1.23c-.82,1.9-2.08,3.62-3.78,5.16-1.7,1.54-3.69,2.74-5.97,3.58-2.29.85-4.74,1.27-7.36,1.27ZM356.42,716.92h29.68c-.21-2.9-.99-5.44-2.35-7.63-1.36-2.19-3.13-3.9-5.32-5.15-2.19-1.25-4.59-1.87-7.21-1.87s-5.01.62-7.17,1.87c-2.16,1.25-3.92,2.98-5.28,5.19-1.36,2.21-2.15,4.74-2.35,7.59Z"/>
      <path class="cls-3" d="M419.17,703.28c-3.5.1-6.57,1.08-9.21,2.93-2.65,1.85-4.51,4.39-5.59,7.63v24.98h-5.24v-40.01h4.93v9.48c1.39-2.83,3.22-5.11,5.51-6.86,2.29-1.75,4.71-2.72,7.29-2.93.51-.05.96-.08,1.35-.08s.71.03.96.08v4.78Z"/>
    </g>
  </g>
</svg>