<?xml version="1.0" encoding="UTF-8"?>
<svg id="Layer_2" xmlns="http://www.w3.org/2000/svg" viewBox="0 0 631.04 702.76">
  <defs>
    <style>
      .cls-1 {
        fill: #333;
      }
    </style>
  </defs>
  <g id="Layer_2-2" data-name="Layer_2">
    <path class="cls-1" d="M209.65,298.73c6.26-4.56,12.6-8.99,18.7-13.74,1.5-1.18,2.46-3.31,3.21-5.19,11.81-29.11,23.47-58.29,35.32-87.38,4.47-10.91,11.24-14.4,20.1-10.91,10.02,3.97,14.98,14.65,11.01,24.57-4.11,10.32-8.62,20.49-12.94,30.74-1.72,4.12-3.35,8.28-5.44,13.44,7.74-4.48,14.41-8.46,21.19-12.27,39.15-21.99,80.04-39.57,124.28-48.45,21.68-4.36,43.51-8.08,65.78-6.34,17.46,1.35,33.16,6.83,45.11,20.42,19.6,22.29,14.34,52.03-11.81,66.06-14.54,7.82-30.57,11.06-46.52,14.22-37.04,7.3-74.33,8.65-111.79,4.06-2.05-.25-4.16-.32-7.29-.55,1.27,1.98,2.08,3.4,3.04,4.74,76.64,110.02,153.31,220.07,229.97,330.09.37.54.76,1.04,1.12,1.58,6.53,9.45,5.71,17.41-2.36,23.23-8.61,6.19-19.6,4.78-25.71-3.77-9.42-13.11-18.53-26.44-27.76-39.68-75.57-108.42-151.11-216.86-226.68-325.3-.98-1.43-2.03-2.84-3.53-4.91-15.85,10.52-31.46,20.78-46.91,31.3-1.51,1.01-2.32,3.38-3.02,5.29-26.44,72.08-48.61,145.48-68.52,219.56-10.48,38.92-20.26,78.02-30.29,117.02-3.76,14.54-16.45,19.85-27.74,11.39-5.89-4.39-7.96-10.35-6.13-17.52,7.96-31.08,15.72-62.18,23.93-93.2,17.9-67.78,37.53-135.05,60.09-201.48.18-.56.26-1.21.72-3.17-7.17,5.78-13.56,10.7-19.67,15.93-1.17,1.01-1.48,3.15-2.01,4.81-34.82,106.99-66.51,214.89-95.06,323.71-3.55,13.56-12.85,18.84-24.29,13.9-8.72-3.74-12.08-11.28-9.25-21.63,10.98-40.25,21.58-80.63,33.23-120.71,15.09-52,31.05-103.72,46.63-155.58.34-1.07.56-2.17.84-3.29.05-.39.11-.79.17-1.21-.34.17-.65.31-.98.45-14.29,10.8-28.43,21.8-42.9,32.32-12.64,9.22-25.63,17.97-38.57,26.77-7.63,5.23-14.72,4.98-21.41-.28-6.58-5.18-8.09-11.47-4.96-20.36,29.18-83.02,64.21-163.47,105.27-241.29.66-1.27,1.25-2.57,2.25-4.6-1.97.45-3.32.67-4.61,1.08-30.29,9.49-60.61,18.91-90.84,28.55-6.27,1.98-12.12,2.52-17.16-2.39-5.3-5.15-6.85-11.55-4.98-18.66,1.75-6.59,6.53-10.09,12.76-12.04,29.82-9.37,59.61-18.82,89.45-28.1,11.7-3.64,23.54-6.78,35.21-10.49,2.31-.73,4.67-2.71,6.02-4.75,3.6-5.51,6.66-11.36,10.57-18.17-3.08.79-5.16,1.24-7.2,1.83-48.23,14.13-96.49,28.24-144.7,42.45-6.55,1.94-12.53,1.93-17.41-3.35-5.13-5.58-6.41-12.22-3.94-19.35,2.03-5.85,6.7-8.79,12.4-10.5,31.02-9.31,61.96-18.93,93.06-27.9,29.73-8.55,59.68-16.37,89.48-24.66,2.15-.59,4.35-2,5.86-3.66,5.18-5.64,11.47-7.33,18.87-5.19,2.6.74,5.71.93,8.32.26,83.35-20.92,167.25-39.43,251.79-54.77,42.52-7.72,85.24-14.43,127.88-21.46,10.86-1.79,20.25,5.43,21.91,16.33,1.32,8.49-3.07,15.02-11.7,16.48-23.37,3.94-46.88,7.16-70.2,11.49-56.9,10.59-113.87,20.81-170.49,32.74-50.47,10.62-100.47,23.37-150.72,35.06-3.94.9-6.55,2.67-8.46,6.24-2.86,5.33-6.19,10.42-10.01,16.79,9.87-2.56,18.39-4.78,26.93-6.98,79.98-20.52,160.63-38.02,242.02-51.92,23.03-3.95,46.15-7.63,69.24-11.33,13.56-2.18,23.99,6.33,23.76,19.18-.14,7.55-4.44,12.26-12.46,13.58-28.97,4.81-57.96,9.34-86.87,14.4-83.55,14.67-166.28,33.16-248.29,54.9-11.52,3.04-23.08,6.05-34.5,9.42-2.32.69-4.92,2.59-6.06,4.65-38.2,68.52-71.48,139.37-99.83,212.52-.41,1.04-.69,2.14-1.03,3.21-.14.51-.28,1.01-.43,1.52.45-.17.9-.34,1.36-.54,24.71-19.21,49.43-38.39,74.07-57.71,1.46-1.15,2.32-3.4,2.97-5.29,12.61-36.87,25.1-73.8,37.7-110.67,3.6-10.56,10.97-15.13,20.99-13.27,11,2.04,16.13,10.49,12.53,21.09-7.05,20.74-14.25,41.43-21.37,62.13-.42,1.22-.76,2.48-1.13,3.7-.05.41-.08.8-.13,1.21.33-.16.63-.33.94-.47M350.44,250.73c1.72.56,2.45.97,3.21,1.04,17.8,1.58,35.58,3.84,53.44,4.5,24.95.93,49.58-2.64,73.94-7.76,8.61-1.81,17.1-4.36,25.42-7.26,4.19-1.46,7.31-5.1,7.12-10.01-.17-4.65-3.74-7.42-7.62-8.47-8.16-2.25-16.59-5.41-24.8-5.09-16.2.62-32.46,2.52-48.43,5.39-28.32,5.08-55.24,14.92-82.26,27.66"/>
  </g>
</svg>