<?xml version="1.0" encoding="UTF-8"?>
<svg id="Layer_2" xmlns="http://www.w3.org/2000/svg" viewBox="0 0 37 36.07">
  <defs>
    <style>
      .cls-1 {
        fill: #ffcea8;
      }
    </style>
  </defs>
  <g id="Layer_3">
    <g>
      <g id="Surfaces">
        <g id="Video_Audio_Surface">
          <g id="Outline_no_shadow">
            <path class="cls-1" d="M30.45,3c1.96,0,3.55,1.59,3.55,3.55v22.97c0,1.96-1.59,3.55-3.55,3.55H6.55c-1.96,0-3.55-1.59-3.55-3.55V6.55c0-1.96,1.59-3.55,3.55-3.55h23.89M30.45,0H6.55C2.93,0,0,2.93,0,6.55v22.97c0,3.62,2.93,6.55,6.55,6.55h23.89c3.62,0,6.55-2.93,6.55-6.55V6.55c0-3.62-2.93-6.55-6.55-6.55h0Z"/>
          </g>
        </g>
      </g>
      <g id="Outlined_Mnemonics_Logos">
        <g id="Ae">
          <path class="cls-1" d="M13.92,9.28h-3.99c-.08.02-.14.09-.12.17,0,.34-.03.68-.09,1-.06.18-.11.32-.15.48l-4.96,14.23c-.05.19,0,.28.17.28h2.9s.02,0,.03,0c.13,0,.23-.09.26-.22l1.17-3.64h5.73l1.26,3.7c.03.1.12.17.22.17,0,0,.02,0,.03,0h3.22c.15,0,.2-.08.15-.25l-5.63-15.8c-.02-.08-.09-.12-.2-.12h0ZM10.02,18.51c.23-.65.48-1.37.68-2.16.25-.77.48-1.54.71-2.28.22-.66.39-1.33.52-1.99h.03c.11.37.22.77.34,1.2.12.45.26.89.42,1.37.15.48.29.94.45,1.42.14.46.28.91.42,1.33.14.4.26.79.35,1.11h-3.92Z"/>
          <path class="cls-1" d="M26.61,12.96s-.07,0-.11,0c-.99,0-1.85.12-2.57.48s-1.36.85-1.87,1.46c-.52.63-.91,1.34-1.16,2.11-.26.8-.39,1.62-.39,2.45,0,.77.11,1.53.32,2.25.22.74.57,1.42,1.06,2.02.52.63,1.19,1.14,1.94,1.46.8.35,1.79.54,2.96.54.07,0,.15,0,.22,0,.66,0,1.32-.06,1.97-.19.54-.09,1.05-.25,1.54-.46.05-.03.08-.06.11-.11.02-.06.03-.12.03-.18v-2.36c0-.11-.02-.15-.06-.15-.02,0-.04.01-.06.03-.43.17-.89.29-1.37.35-.52.11-1.06.15-1.6.17-.03,0-.07,0-.1,0-.64,0-1.29-.14-1.87-.39-.46-.18-.85-.51-1.13-.92-.26-.42-.42-.89-.48-1.37h4.89c.4,0,.77.06,1.13.06s.65-.02.89-.05c.25-.02.42-.03.51-.03.11,0,.2-.09.22-.2.02-.14.03-.35.06-.65.02-.29.03-.62.03-.99,0-.63-.09-1.26-.29-1.88-.2-.65-.52-1.23-.93-1.76-.43-.54-.99-.96-1.62-1.23-.72-.32-1.5-.48-2.28-.48h0ZM24,17.91c.05-.39.15-.76.34-1.11.38-.73,1.13-1.17,1.93-1.17.04,0,.08,0,.12,0,.02,0,.05,0,.07,0,.88,0,1.67.58,1.94,1.42.06.18.09.37.09.57v.15c-.11.08-.23.11-.35.12-.19.02-.48.02-.88.02h-3.25Z"/>
        </g>
      </g>
    </g>
  </g>
</svg>