<?xml version="1.0" encoding="UTF-8"?>
<svg id="Layer_2" xmlns="http://www.w3.org/2000/svg" viewBox="0 0 37 36.07">
  <defs>
    <style>
      .cls-1 {
        fill: #ffcea8;
      }
    </style>
  </defs>
  <g id="Layer_3">
    <g>
      <g id="Drawing_Surface">
        <g id="Outline_no_shadow">
          <path class="cls-1" d="M30.45,3c1.96,0,3.55,1.59,3.55,3.55v22.97c0,1.96-1.59,3.55-3.55,3.55H6.55c-1.96,0-3.55-1.59-3.55-3.55V6.55c0-1.96,1.59-3.55,3.55-3.55h23.89M30.45,0H6.55C2.93,0,0,2.93,0,6.55v22.97c0,3.62,2.93,6.55,6.55,6.55h23.89c3.62,0,6.55-2.93,6.55-6.55V6.55c0-3.62-2.93-6.55-6.55-6.55h0Z"/>
        </g>
      </g>
      <g id="Outlined_Mnemonics_Logos">
        <g id="Ai">
          <path class="cls-1" d="M17.93,21.65h-5.73l-1.17,3.62c-.03.14-.16.23-.3.22h-2.9c-.17,0-.22-.09-.17-.27l4.96-14.3c.05-.15.1-.32.15-.51.06-.33.1-.67.1-1.01-.01-.08.05-.16.13-.17.01,0,.03,0,.04,0h3.95c.12,0,.18.04.2.12l5.63,15.88c.05.17,0,.25-.15.25h-3.23c-.11.01-.22-.06-.25-.17l-1.27-3.67ZM13.09,18.52h3.92c-.1-.33-.22-.7-.35-1.12-.13-.41-.27-.86-.42-1.33-.15-.47-.3-.94-.45-1.41-.15-.47-.29-.93-.41-1.37-.12-.44-.24-.84-.34-1.2h-.02c-.14.67-.31,1.33-.52,1.99-.23.74-.47,1.51-.71,2.28-.24.78-.48,1.5-.71,2.16h0Z"/>
          <path class="cls-1" d="M26.17,11.87c-.51.02-1.01-.18-1.37-.55-.36-.38-.54-.89-.52-1.41-.02-.52.18-1.02.56-1.38.37-.35.87-.55,1.38-.53.6,0,1.06.18,1.4.53.35.37.53.87.51,1.38.02.52-.17,1.03-.53,1.41-.38.37-.9.57-1.43.55ZM24.46,25.25v-11.86c0-.15.07-.22.2-.22h3.05c.13,0,.2.07.2.22v11.86c0,.17-.07.25-.2.25h-3.03c-.15,0-.22-.08-.22-.25Z"/>
        </g>
      </g>
    </g>
  </g>
</svg>