<?xml version="1.0" encoding="UTF-8"?>
<svg id="Layer_2" xmlns="http://www.w3.org/2000/svg" viewBox="0 0 42.73 42.73">
  <defs>
    <style>
      .cls-1 {
        fill: none;
      }

      .cls-2 {
        fill: #ffcea8;
      }
    </style>
  </defs>
  <g id="Layer_3">
    <rect class="cls-1" width="42.73" height="42.73" rx="2.68" ry="2.68"/>
    <path class="cls-2" d="M38.94,7.59L7.53,39c-1.24,1.24-3.09,1.42-4.12.39h0c-1.03-1.03-.86-2.87.39-4.12L35.21,3.86c1.24-1.24,3.09-1.42,4.12-.39h0c1.03,1.03.86,2.87-.39,4.12Z"/>
    <path class="cls-2" d="M3.8,7.59l31.41,31.41c1.24,1.24,3.09,1.42,4.12.39h0c1.03-1.03.86-2.87-.39-4.12L7.53,3.86c-1.24-1.24-3.09-1.42-4.12-.39h0c-1.03,1.03-.86,2.87.39,4.12Z"/>
  </g>
</svg>