<?xml version="1.0" encoding="UTF-8"?>
<svg id="Layer_2" xmlns="http://www.w3.org/2000/svg" viewBox="0 0 36.08 24.08">
  <defs>
    <style>
      .cls-1 {
        fill: #ffcea8;
      }
    </style>
  </defs>
  <g id="Layer_3">
    <g>
      <path class="cls-1" d="M0,24.08c0-6.15,4.98-11.13,11.13-11.13s11.13,4.98,11.13,11.13"/>
      <circle class="cls-1" cx="11.13" cy="6.47" r="6.47"/>
      <path class="cls-1" d="M36.08,24.08h-1.67c0-3.78-3.08-6.86-6.86-6.86s-6.86,3.08-6.86,6.86h-1.67c0-4.7,3.83-8.53,8.53-8.53s8.53,3.83,8.53,8.53Z"/>
      <path class="cls-1" d="M27.55,17.22c-3.41,0-6.18-2.77-6.18-6.18s2.77-6.18,6.18-6.18,6.18,2.77,6.18,6.18-2.77,6.18-6.18,6.18ZM27.55,6.52c-2.49,0-4.52,2.03-4.52,4.52s2.03,4.52,4.52,4.52,4.52-2.03,4.52-4.52-2.03-4.52-4.52-4.52Z"/>
    </g>
  </g>
</svg>