<?xml version="1.0" encoding="UTF-8"?>
<svg id="Layer_2" xmlns="http://www.w3.org/2000/svg" viewBox="0 0 25.56 36.08">
  <defs>
    <style>
      .cls-1 {
        fill: #ffcea8;
      }
    </style>
  </defs>
  <g id="Layer_3">
    <g id="layer1">
      <g id="g3013">
        <path class="cls-1" d="M0,7.09l2.33,26.09,10.44,2.9,10.47-2.91,2.33-26.08H0ZM20.2,18.9l-.08.86-.75,8.42-.05.54-6.55,1.81h0s-.01,0-.01,0l-6.55-1.82-.45-5.02h3.21l.23,2.55,3.57.96h.01s3.56-.97,3.56-.97l.37-4.15H5.62l-.29-3.2h11.65l.29-3.28H5.05l-.29-3.2h16.03l-.58,6.48Z"/>
        <path id="path2999" class="cls-1" d="M6.01,0h3.88v1.62h-2.25v1.62h2.25v1.62h-3.88V0Z"/>
        <path id="path3001" class="cls-1" d="M10.66,0h3.88v1.41h-2.25v.28h2.25v3.24h-3.88v-1.48h2.25v-.28h-2.25V0Z"/>
        <path id="path3003" class="cls-1" d="M15.31,0h3.88v1.41h-2.25v.28h2.25v3.24h-3.88v-1.48h2.25v-.28h-2.25V0Z"/>
      </g>
    </g>
  </g>
</svg>