<?xml version="1.0" encoding="UTF-8"?>
<svg id="Layer_2" xmlns="http://www.w3.org/2000/svg" viewBox="0 0 51.58 35.84">
  <defs>
    <style>
      .cls-1 {
        fill: #ffcea8;
      }
    </style>
  </defs>
  <g id="Layer_2-2" data-name="Layer_2">
    <g>
      <path class="cls-1" d="M47.1,1.01l-20.04,13.92c-.77.53-1.79.53-2.56,0L4.48,1.01c1.2-.65,2.56-1.01,4.02-1.01h34.58c1.46,0,2.83.37,4.02,1.01Z"/>
      <path class="cls-1" d="M51.58,8.5v18.84c0,4.69-3.8,8.5-8.5,8.5H8.5c-4.69,0-8.5-3.81-8.5-8.5V8.5c0-1.81.57-3.49,1.53-4.87l20.79,14.45c1.03.72,2.25,1.08,3.46,1.08s2.43-.36,3.46-1.08L50.04,3.63c.97,1.38,1.53,3.06,1.53,4.87Z"/>
    </g>
  </g>
</svg>