<?xml version="1.0" encoding="UTF-8"?>
<svg id="Layer_2" xmlns="http://www.w3.org/2000/svg" viewBox="0 0 37 33.37">
  <defs>
    <style>
      .cls-1 {
        fill: #ffcea8;
      }
    </style>
  </defs>
  <g id="Layer_3">
    <g>
      <path class="cls-1" d="M34.82,0H2.18C.97,0,0,.97,0,2.18v29.01c0,1.2.97,2.18,2.18,2.18h25.17c-.49-.41-.92-.9-1.27-1.44H3.62c-1.2,0-2.18-.97-2.18-2.18V9.57c0-1.2.97-2.18,2.18-2.18h29.76c1.2,0,2.18.97,2.18,2.18v12.86c.54.34,1.02.77,1.44,1.26V2.18c0-1.21-.97-2.18-2.18-2.18Z"/>
      <path class="cls-1" d="M19.41,13.97l1.1,3.38h3.55c.93,0,1.31,1.19.56,1.73l-2.87,2.09,1.1,3.38c.29.88-.72,1.62-1.47,1.07l-2.87-2.09-2.87,2.09c-.75.55-1.76-.19-1.47-1.07l1.1-3.38-2.87-2.09c-.75-.55-.36-1.73.56-1.73h3.55s1.1-3.38,1.1-3.38c.29-.88,1.54-.88,1.82,0Z"/>
      <path class="cls-1" d="M32.54,23.03c-.24-.04-.48-.05-.73-.05s-.48.02-.71.05c-2.29.31-4.1,2.11-4.43,4.4-.04.24-.06.49-.06.74,0,.24.02.47.05.7.34,2.54,2.51,4.5,5.15,4.5,2.87,0,5.19-2.33,5.19-5.2,0-2.62-1.94-4.78-4.46-5.14ZM34.26,26.52l-2.47,3.87c-.09.14-.24.23-.4.24h-.04c-.15,0-.29-.06-.39-.18l-1.58-1.83c-.19-.22-.16-.54.05-.73s.54-.16.73.05l1.13,1.3,2.1-3.29c.15-.24.47-.31.71-.15.24.15.31.47.16.71Z"/>
    </g>
  </g>
</svg>