<?xml version="1.0" encoding="UTF-8"?>
<svg id="Layer_2" xmlns="http://www.w3.org/2000/svg" viewBox="0 0 25.56 36.08">
  <defs>
    <style>
      .cls-1 {
        fill: #ffcea8;
      }
    </style>
  </defs>
  <g id="Layer_3">
    <g>
      <path class="cls-1" d="M20.93,3.25V0h-1.62v4.86h3.92v-1.61h-2.3ZM16.81,0l-1.04,1.71-1.05-1.71h-1.69v4.86h1.59v-2.41l1.14,1.75,1.13-1.75v2.41h1.62V0h-1.7ZM7.83,0v1.62h1.43v3.24h1.62V1.62h1.44V0h-4.49ZM5.5,0v1.61h-1.49V0h-1.63v4.86h1.64v-1.62h1.48v1.62h1.62V0h-1.62Z"/>
      <path class="cls-1" d="M12.77,27.21h.01s-.01,0-.01,0ZM12.76,22.08h0s.02.01.02.01h0s-.02-.01-.02-.01Z"/>
      <path class="cls-1" d="M0,7.09l2.33,26.1,10.43,2.89,10.48-2.91,2.33-26.08H0ZM20.49,15.62h-12.23l.29,3.28h11.65l-.89,9.82-6.53,1.81v.02l-6.57-1.83-.45-5.03h3.21l.23,2.56,3.56.96h.02s3.55-.96,3.55-.96l.37-4.15h-3.95s-7.14-.01-7.14-.01l-.87-9.67h16.03l-.29,3.2Z"/>
      <path class="cls-1" d="M12.76,22.08h0s.02.01.02.01h0s-.02-.01-.02-.01ZM12.77,27.21h.01s-.01,0-.01,0Z"/>
    </g>
  </g>
</svg>