<?xml version="1.0" encoding="UTF-8"?>
<svg id="Layer_2" xmlns="http://www.w3.org/2000/svg" viewBox="0 0 35.97 35.97">
  <defs>
    <style>
      .cls-1 {
        fill: #ffcea8;
      }
    </style>
  </defs>
  <g id="Layer_2-2" data-name="Layer_2">
    <path class="cls-1" d="M17.99,8.76c-5.1,0-9.22,4.12-9.22,9.22s4.12,9.22,9.22,9.22,9.22-4.12,9.22-9.22-4.12-9.22-9.22-9.22ZM17.99,23.98c-3.3,0-5.99-2.69-5.99-5.99s2.69-5.99,5.99-5.99,5.99,2.69,5.99,5.99-2.7,5.99-5.99,5.99h0ZM29.74,8.38c0,1.2-.96,2.15-2.15,2.15s-2.15-.96-2.15-2.15.96-2.15,2.15-2.15,2.15.96,2.15,2.15ZM35.85,10.57c-.14-2.88-.79-5.43-2.91-7.54C30.84.93,28.29.27,25.41.13,22.44-.04,13.54-.04,10.57.13c-2.87.14-5.43.79-7.54,2.9C.92,5.13.27,7.68.13,10.56-.04,13.53-.04,22.43.13,25.4c.14,2.88.79,5.43,2.91,7.54,2.11,2.1,4.65,2.76,7.54,2.91,2.97.17,11.87.17,14.84,0,2.88-.14,5.43-.79,7.54-2.91,2.1-2.1,2.76-4.65,2.91-7.54.17-2.97.17-11.86,0-14.83h0ZM32.01,28.58c-.63,1.57-1.84,2.78-3.42,3.42-2.37.94-7.99.72-10.6.72s-8.24.21-10.6-.72c-1.57-.63-2.78-1.84-3.42-3.42-.94-2.37-.72-7.99-.72-10.6s-.21-8.24.72-10.6c.63-1.57,1.84-2.78,3.42-3.42,2.37-.94,7.99-.72,10.6-.72s8.24-.21,10.6.72c1.57.63,2.78,1.84,3.42,3.42.94,2.37.72,7.99.72,10.6s.22,8.24-.72,10.6Z"/>
  </g>
</svg>