<?xml version="1.0" encoding="UTF-8"?>
<svg id="Layer_2" xmlns="http://www.w3.org/2000/svg" viewBox="0 0 36.08 36.08">
  <defs>
    <style>
      .cls-1 {
        fill: #ffcea8;
      }
    </style>
  </defs>
  <g id="Layer_3">
    <path class="cls-1" d="M0,0v36.08h36.08V0H0ZM19.64,28.14c0,3.51-2.06,5.11-5.06,5.11-2.71,0-4.29-1.41-5.09-3.1l2.76-1.67c.53.95,1.01,1.74,2.18,1.74s1.82-.43,1.82-2.13v-11.53h3.39v11.57ZM27.66,33.25c-3.15,0-5.19-1.5-6.18-3.47l2.75-1.6c.73,1.19,1.67,2.06,3.35,2.06,1.41,0,2.3-.71,2.3-1.67,0-1.17-.92-1.57-2.47-2.25l-.85-.36c-2.45-1.05-4.07-2.35-4.07-5.11,0-2.54,1.94-4.47,4.97-4.47,2.15,0,3.71.75,4.82,2.71l-2.64,1.69c-.58-1.04-1.21-1.45-2.18-1.45s-1.63.63-1.63,1.45c0,1.02.63,1.43,2.09,2.06l.85.36c2.88,1.24,4.51,2.5,4.51,5.33,0,3.05-2.39,4.73-5.61,4.73Z"/>
  </g>
</svg>