<?xml version="1.0" encoding="UTF-8"?>
<svg id="Layer_2" xmlns="http://www.w3.org/2000/svg" viewBox="0 0 35.85 35.85">
  <defs>
    <style>
      .cls-1 {
        fill: #ffcea8;
      }
    </style>
  </defs>
  <g id="Layer_2-2" data-name="Layer_2">
    <path class="cls-1" d="M8.02,35.85H.59V11.91h7.43v23.94ZM4.3,8.65C1.93,8.65,0,6.68,0,4.3,0,1.93,1.93,0,4.31,0c2.38,0,4.3,1.93,4.3,4.3,0,2.38-1.93,4.35-4.3,4.35ZM35.84,35.85h-7.42v-11.65c0-2.78-.06-6.34-3.86-6.34s-4.46,3.02-4.46,6.14v11.85h-7.42V11.91h7.13v3.26h.1c.99-1.88,3.42-3.87,7.03-3.87,7.52,0,8.91,4.95,8.91,11.39v13.15h0Z"/>
  </g>
</svg>