<?xml version="1.0" encoding="UTF-8"?>
<svg id="Layer_2" xmlns="http://www.w3.org/2000/svg" viewBox="0 0 37 36.07">
  <defs>
    <style>
      .cls-1 {
        fill: #ffcea8;
      }
    </style>
  </defs>
  <g id="Layer_3">
    <g>
      <g id="Surfaces">
        <g id="Photo_Surface">
          <g id="Outline_no_shadow">
            <path class="cls-1" d="M30.45,3c1.96,0,3.55,1.59,3.55,3.55v22.97c0,1.96-1.59,3.55-3.55,3.55H6.55c-1.96,0-3.55-1.59-3.55-3.55V6.55c0-1.96,1.59-3.55,3.55-3.55h23.89M30.45,0H6.55C2.93,0,0,2.93,0,6.55v22.97c0,3.62,2.93,6.55,6.55,6.55h23.89c3.62,0,6.55-2.93,6.55-6.55V6.55c0-3.62-2.93-6.55-6.55-6.55h0Z"/>
          </g>
        </g>
      </g>
      <g id="Outlined_Mnemonics_Logos">
        <g id="Lr">
          <path class="cls-1" d="M12.68,9.25s-.02,0-.02,0h-3.08c-.11.02-.18.11-.17.22v15.75c0,.19.08.28.25.28h9.77c.06,0,.11-.02.15-.05.05-.05.09-.11.09-.19l.45-2.68c.03-.14-.02-.22-.17-.22h-7.12v-13c0-.07-.07-.13-.15-.13h0Z"/>
          <path class="cls-1" d="M29.12,12.92s-.02,0-.03,0c-.03,0-.06,0-.09,0-.77,0-1.52.19-2.2.56-.63.34-1.19.79-1.65,1.33,0-.2-.02-.39-.03-.55-.02-.15-.05-.32-.08-.48-.02-.12-.06-.25-.12-.35-.05-.14-.17-.25-.32-.25h-2.7s-.03-.01-.04-.01-.02,0-.03.01c-.08.02-.12.09-.11.17.05.34.08.68.09,1.02.02.4.02.8.03,1.2.02.4.02.79.02,1.16v8.6c.01.11.11.19.22.19.01,0,.02,0,.03,0h3.01c.14,0,.2-.06.2-.22v-7.86c.23-.25.52-.43.83-.57.79-.35,1.66-.54,2.54-.54.13,0,.25,0,.38.01.17,0,.25-.05.25-.17v-3.07c-.01-.1-.09-.17-.19-.17h0Z"/>
        </g>
      </g>
    </g>
  </g>
</svg>