<?xml version="1.0" encoding="UTF-8"?>
<svg id="Layer_2" xmlns="http://www.w3.org/2000/svg" viewBox="0 0 36.08 27.37">
  <defs>
    <style>
      .cls-1 {
        fill: #ffcea8;
      }
    </style>
  </defs>
  <g id="Layer_3">
    <path class="cls-1" d="M30.98,0H5.1C2.28,0,0,2.23,0,4.98v17.41c0,2.75,2.28,4.98,5.1,4.98h25.88c2.81,0,5.09-2.23,5.09-4.98V4.98c0-2.75-2.29-4.98-5.09-4.98ZM3.3,5.11h15.79v3.46H3.3v-3.46ZM24.42,8.57c-.97,0-1.77-.77-1.77-1.73s.8-1.73,1.77-1.73,1.77.77,1.77,1.73-.79,1.73-1.77,1.73ZM29.77,6.84c0-.96.79-1.73,1.77-1.73s1.77.77,1.77,1.73-.79,1.73-1.77,1.73-1.77-.77-1.77-1.73ZM34.58,22.39c0,1.94-1.62,3.52-3.6,3.52H5.1c-1.99,0-3.61-1.58-3.61-3.52v-8.7h2.32v7.47h3.12v-7.47h1.95v7.47h3.12v-7.47h7.02v7.47h3.12v-7.47h1.95v7.47h3.12v-7.47h1.95v7.47h3.12v-7.47h2.32v8.7Z"/>
  </g>
</svg>