<?xml version="1.0" encoding="UTF-8"?>
<svg xmlns="http://www.w3.org/2000/svg" version="1.1" viewBox="0 0 36.1 36.1">
  <defs>
    <style>
      .cls-1 {
        fill: #ffcea8;
      }

      .cls-2 {
        display: none;
      }
    </style>
  </defs>
  <!-- Generator: Adobe Illustrator 28.7.1, SVG Export Plug-In . SVG Version: 1.2.0 Build 142)  -->
  <g>
    <g id="Layer_2" class="cls-2">
      <g id="Layer_3">
        <path class="cls-1" d="M31,4.4H5.1C2.3,4.4,0,6.6,0,9.3v17.4c0,2.8,2.3,5,5.1,5h25.9c2.8,0,5.1-2.2,5.1-5V9.3c0-2.8-2.3-5-5.1-5ZM3.3,9.5h15.8v3.5H3.3s0-3.5,0-3.5ZM24.4,12.9c-1,0-1.8-.8-1.8-1.7s.8-1.7,1.8-1.7,1.8.8,1.8,1.7-.8,1.7-1.8,1.7ZM29.8,11.2c0-1,.8-1.7,1.8-1.7s1.8.8,1.8,1.7-.8,1.7-1.8,1.7-1.8-.8-1.8-1.7ZM34.6,26.7c0,1.9-1.6,3.5-3.6,3.5H5.1c-2,0-3.6-1.6-3.6-3.5v-8.7h2.3v7.5h3.1v-7.5h2v7.5h3.1v-7.5h7v7.5h3.1v-7.5h2v7.5h3.1v-7.5h2v7.5h3.1v-7.5h2.3v8.7h0Z"/>
      </g>
    </g>
    <g id="Layer_3-2" data-name="Layer_3">
      <g>
        <path class="cls-1" d="M13.8,31.3c0,2.6-2.3,4.7-5.2,4.7s-5.2-2.1-5.2-4.7,2.3-4.8,5.2-4.8,2.5.5,3.5,1.2c1,.9,1.7,2.1,1.7,3.5Z"/>
        <ellipse class="cls-1" cx="27.5" cy="27.1" rx="5.2" ry="4.8"/>
        <path class="cls-1" d="M12,27.8v3.5h1.7c0-1.4-.7-2.7-1.7-3.5Z"/>
        <polygon class="cls-1" points="13.8 31.3 12 31.3 12 4.6 32.7 0 32.7 27.1 30.9 27.1 30.9 9.2 13.8 13.1 13.8 31.3"/>
      </g>
    </g>
  </g>
</svg>