<?xml version="1.0" encoding="UTF-8"?>
<svg xmlns="http://www.w3.org/2000/svg" version="1.1" viewBox="0 0 36.1 36.1">
  <defs>
    <style>
      .cls-1 {
        fill: #ffcea8;
      }
    </style>
  </defs>
  <!-- Generator: Adobe Illustrator 28.7.1, SVG Export Plug-In . SVG Version: 1.2.0 Build 142)  -->
  <g>
    <g id="Layer_2">
      <path class="cls-1" d="M26.1,3.7c.5,0,1,.3,1.1.8l.7,2.4h5.1c.7,0,1.2.6,1.2,1.2v22.9c0,.7-.6,1.2-1.2,1.2H3.2c-.7,0-1.2-.6-1.2-1.2V8.2c0-.7.6-1.2,1.2-1.2h1.2v-1.3s3.5,0,3.5,0v1.3h10.5l.7-2.4c.1-.5.6-.8,1.1-.8h6M23,25.1c4.7,0,8.4-3.8,8.4-8.4s-3.8-8.4-8.4-8.4-8.4,3.8-8.4,8.4,3.8,8.4,8.4,8.4M4.6,11.3c.8,0,1.5-.7,1.5-1.5s-.7-1.5-1.5-1.5-.7.1-.9.3c-.4.3-.6.7-.6,1.2s.2.9.6,1.2c.3.2.6.3.9.3h0M26.1,1.8h-6c-1.4,0-2.6.9-3,2.3l-.3,1h-7.2c-.3-.8-1-1.3-1.8-1.3h-3.4s0,0,0,0c-.9,0-1.6.6-1.8,1.4C1.1,5.4,0,6.7,0,8.2v22.9c0,1.7,1.4,3.2,3.2,3.2h29.7c1.7,0,3.2-1.4,3.2-3.2V8.2c0-1.7-1.4-3.2-3.2-3.2h-3.6l-.3-1c-.4-1.3-1.6-2.3-3-2.3h0ZM23,23.2c-3.6,0-6.5-2.9-6.5-6.5s2.9-6.5,6.5-6.5,6.5,2.9,6.5,6.5-2.9,6.5-6.5,6.5h0Z"/>
    </g>
  </g>
</svg>