<?xml version="1.0" encoding="UTF-8"?>
<svg id="Layer_2" xmlns="http://www.w3.org/2000/svg" viewBox="0 0 36.08 32.39">
  <defs>
    <style>
      .cls-1 {
        fill: #ffcea8;
      }
    </style>
  </defs>
  <g id="Layer_3">
    <g>
      <path class="cls-1" d="M33.48,32.39H2.61c-1.44,0-2.61-1.17-2.61-2.6V6c0-1.4,1.12-2.54,2.51-2.6v-.04c0-.73.6-1.33,1.34-1.33h3.54c.74,0,1.34.6,1.34,1.33v.04h8.56l.43-1.56c.29-1.08,1.28-1.84,2.4-1.84h6.24c1.12,0,2.11.75,2.41,1.84l.43,1.56h4.29c1.43,0,2.6,1.17,2.6,2.6v23.79c0,1.43-1.17,2.6-2.6,2.6ZM2.61,4.71c-.71,0-1.29.58-1.29,1.29v23.79c0,.71.58,1.29,1.29,1.29h30.87c.71,0,1.29-.58,1.29-1.29V6c0-.71-.58-1.29-1.29-1.29h-5.29l-.69-2.53c-.14-.51-.61-.87-1.14-.87h-6.24c-.53,0-1,.36-1.14.87l-.69,2.53H7.42v-1.35l-3.57-.02-.03,1.37h-1.21Z"/>
      <path class="cls-1" d="M4.04,9.14c-.35,0-.69-.12-.98-.34-.37-.3-.58-.74-.58-1.21s.21-.91.58-1.21c.29-.23.63-.35.98-.35.86,0,1.56.7,1.56,1.56s-.7,1.56-1.56,1.56ZM4.04,7.34c-.07,0-.13.03-.16.06-.03.02-.09.08-.09.18s.06.16.09.19c.03.02.09.06.16.06.13,0,.24-.11.24-.24s-.11-.24-.24-.24Z"/>
      <path class="cls-1" d="M23.24,23.51c-4.82,0-8.74-3.92-8.74-8.74s3.92-8.74,8.74-8.74,8.75,3.92,8.75,8.74-3.92,8.74-8.75,8.74ZM23.24,7.34c-4.1,0-7.43,3.33-7.43,7.43s3.33,7.43,7.43,7.43,7.44-3.33,7.44-7.43-3.34-7.43-7.44-7.43Z"/>
    </g>
  </g>
</svg>