<?xml version="1.0" encoding="UTF-8"?>
<svg id="Layer_2" xmlns="http://www.w3.org/2000/svg" viewBox="0 0 37 36.07">
  <defs>
    <style>
      .cls-1 {
        fill: #ffcea8;
      }
    </style>
  </defs>
  <g id="Layer_3">
    <g>
      <g id="Surfaces">
        <g id="Photo_Surface">
          <g id="Outline_no_shadow">
            <path class="cls-1" d="M30.45,3c1.96,0,3.55,1.59,3.55,3.55v22.97c0,1.96-1.59,3.55-3.55,3.55H6.55c-1.96,0-3.55-1.59-3.55-3.55V6.55c0-1.96,1.59-3.55,3.55-3.55h23.89M30.45,0H6.55C2.93,0,0,2.93,0,6.55v22.97c0,3.62,2.93,6.55,6.55,6.55h23.89c3.62,0,6.55-2.93,6.55-6.55V6.55c0-3.62-2.93-6.55-6.55-6.55h0Z"/>
          </g>
        </g>
      </g>
      <g id="Outlined_Mnemonics_Logos">
        <g id="Ps">
          <path class="cls-1" d="M13.27,9.19c-.46,0-.93,0-1.4.01-.47,0-.92.02-1.34.02-.42,0-.81.02-1.18.02-.36,0-.61.01-.87.01-.1,0-.15.06-.15.17v15.86c0,.13.06.2.17.2h2.96s.02,0,.03,0,.02,0,.03,0c.11-.02.18-.12.17-.22v-4.95c.3,0,.52,0,.67.01.15,0,.41.01.77.01,1.27,0,2.43-.13,3.47-.52,1-.36,1.87-1.01,2.48-1.87.61-.86.92-1.95.92-3.28,0-.68-.12-1.36-.35-2-.25-.66-.63-1.26-1.13-1.75-.59-.57-1.3-1-2.07-1.27-.86-.31-1.92-.47-3.18-.47h0ZM12.27,17.44c-.18,0-.38,0-.59-.02v-5.17c.12-.02.33-.03.63-.04.31,0,.66-.01,1.05-.01.05,0,.1,0,.15,0,.57,0,1.13.11,1.67.31.44.18.82.48,1.08.88.25.41.37.89.36,1.37,0,.68-.16,1.21-.48,1.59-.33.39-.77.67-1.27.82-.57.19-1.17.28-1.77.28h-.82Z"/>
          <path class="cls-1" d="M26.57,13s-.07,0-.1,0c-1.09,0-2,.18-2.73.55-.66.31-1.22.8-1.61,1.41-.34.56-.52,1.2-.52,1.86,0,.55.12,1.09.36,1.58.28.52.68.97,1.17,1.3.68.47,1.42.85,2.2,1.12.76.28,1.27.52,1.51.72.25.2.37.41.37.62,0,.28-.16.53-.41.65-.27.15-.7.22-1.28.22-.61,0-1.22-.09-1.81-.24-.67-.15-1.32-.41-1.91-.76-.02-.02-.05-.03-.08-.03-.02,0-.04,0-.06.02-.04.03-.07.08-.06.14v2.68c0,.12.06.24.17.3.5.23,1.03.4,1.58.5.66.13,1.33.2,2,.2.03,0,.07,0,.1,0,1.11,0,2.04-.17,2.79-.5.7-.28,1.29-.76,1.73-1.38.4-.61.61-1.32.6-2.05.01-.55-.11-1.1-.36-1.59-.29-.52-.71-.96-1.22-1.28-.74-.47-1.54-.85-2.37-1.13-.37-.15-.74-.32-1.09-.51-.2-.1-.38-.24-.52-.41-.09-.11-.14-.25-.15-.4,0-.15.04-.3.12-.42.12-.16.29-.27.48-.31.27-.07.56-.11.84-.11.03,0,.06,0,.09,0,.58,0,1.16.07,1.72.2.51.11,1.01.28,1.48.52.03.02.07.03.11.03s.07,0,.11-.03c.05-.03.08-.09.07-.15v-2.51c0-.06,0-.13-.02-.19-.03-.07-.08-.12-.15-.14-.42-.18-.87-.3-1.33-.36-.6-.09-1.21-.14-1.81-.14h0Z"/>
        </g>
      </g>
    </g>
  </g>
</svg>