<?xml version="1.0" encoding="UTF-8"?>
<svg id="Layer_2" xmlns="http://www.w3.org/2000/svg" viewBox="0 0 36.05 35.87">
  <defs>
    <style>
      .cls-1 {
        fill: #ffcea8;
        fill-rule: evenodd;
      }
    </style>
  </defs>
  <g id="Layer_3">
    <g id="mask0">
      <path class="cls-1" d="M25.56,35.71c.57.22,1.22.21,1.79-.07l7.42-3.57c.78-.38,1.28-1.16,1.28-2.03V5.82c0-.87-.5-1.66-1.28-2.03L27.35.22c-.75-.36-1.63-.27-2.29.21-.09.07-.18.15-.27.23l-14.21,12.96-6.19-4.7c-.58-.44-1.38-.4-1.92.09l-1.99,1.81c-.65.6-.66,1.63,0,2.22l5.37,4.9L.49,22.83c-.65.6-.65,1.63,0,2.22l1.99,1.81c.54.49,1.34.52,1.92.09l6.19-4.7,14.21,12.96c.22.22.49.39.77.5ZM27.04,9.75l-10.78,8.18,10.78,8.18V9.75Z"/>
    </g>
  </g>
</svg>